<svg width="18" height="18" viewBox="0 0 18 18" fill="none" xmlns="http://www.w3.org/2000/svg">
<path d="M6.9375 6.78711C8.2725 7.27461 9.7275 7.27461 11.0625 6.78711" stroke="#8E8E93" stroke-width="1.125" stroke-linecap="round" stroke-linejoin="round"/>
<path d="M12.6147 1.5H5.38475C3.78725 1.5 2.48975 2.805 2.48975 4.395V14.9625C2.48975 16.3125 3.45725 16.8825 4.64225 16.23L8.30225 14.1975C8.69225 13.98 9.32225 13.98 9.70475 14.1975L13.3647 16.23C14.5497 16.89 15.5172 16.32 15.5172 14.9625V4.395C15.5097 2.805 14.2122 1.5 12.6147 1.5Z" stroke="#8E8E93" stroke-width="1.125" stroke-linecap="round" stroke-linejoin="round"/>
<path d="M12.6147 1.5H5.38475C3.78725 1.5 2.48975 2.805 2.48975 4.395V14.9625C2.48975 16.3125 3.45725 16.8825 4.64225 16.23L8.30225 14.1975C8.69225 13.98 9.32225 13.98 9.70475 14.1975L13.3647 16.23C14.5497 16.89 15.5172 16.32 15.5172 14.9625V4.395C15.5097 2.805 14.2122 1.5 12.6147 1.5Z" stroke="#8E8E93" stroke-width="1.125" stroke-linecap="round" stroke-linejoin="round"/>
</svg>
