<svg width="19" height="18" viewBox="0 0 19 18" fill="none" xmlns="http://www.w3.org/2000/svg">
<path d="M14.4935 7.5H7.0835V6.93C7.0835 6.28552 6.82748 5.66744 6.37177 5.21173C5.91605 4.75602 5.29797 4.5 4.6535 4.5H3.3335V2.25C3.3335 2.05109 3.25448 1.86032 3.11383 1.71967C2.97317 1.57902 2.78241 1.5 2.5835 1.5C2.38458 1.5 2.19382 1.57902 2.05317 1.71967C1.91251 1.86032 1.8335 2.05109 1.8335 2.25V15C1.8335 15.1989 1.91251 15.3897 2.05317 15.5303C2.19382 15.671 2.38458 15.75 2.5835 15.75C2.78241 15.75 2.97317 15.671 3.11383 15.5303C3.25448 15.3897 3.3335 15.1989 3.3335 15V14.25H14.5835V15C14.5835 15.1989 14.6625 15.3897 14.8032 15.5303C14.9438 15.671 15.1346 15.75 15.3335 15.75C15.5324 15.75 15.7232 15.671 15.8638 15.5303C16.0045 15.3897 16.0835 15.1989 16.0835 15V14.25H16.8335V9.84C16.8335 9.53271 16.773 9.22842 16.6554 8.94452C16.5378 8.66062 16.3654 8.40266 16.1481 8.18537C15.9308 7.96808 15.6729 7.79572 15.389 7.67812C15.1051 7.56053 14.8008 7.5 14.4935 7.5ZM3.3335 6H4.6535C4.7759 5.999 4.89729 6.02237 5.01057 6.06876C5.12385 6.11514 5.22677 6.18361 5.31333 6.27016C5.39989 6.35672 5.46836 6.45964 5.51474 6.57293C5.56112 6.68621 5.5845 6.80759 5.5835 6.93V7.5H3.3335V6ZM3.3335 12.75V9H14.4935C14.7163 9 14.9299 9.0885 15.0875 9.24603C15.245 9.40356 15.3335 9.61722 15.3335 9.84V12.75H3.3335Z" fill="#D9DBE1"/>
<path d="M13.8335 10.5H7.0835C6.88458 10.5 6.69382 10.579 6.55317 10.7197C6.41251 10.8603 6.3335 11.0511 6.3335 11.25C6.3335 11.4489 6.41251 11.6397 6.55317 11.7803C6.69382 11.921 6.88458 12 7.0835 12H13.8335C14.0324 12 14.2232 11.921 14.3638 11.7803C14.5045 11.6397 14.5835 11.4489 14.5835 11.25C14.5835 11.0511 14.5045 10.8603 14.3638 10.7197C14.2232 10.579 14.0324 10.5 13.8335 10.5Z" fill="#D9DBE1"/>
</svg>
