<svg width="18" height="18" viewBox="0 0 18 18" fill="none" xmlns="http://www.w3.org/2000/svg">
<path d="M14.16 7.5H6.75V6.93C6.75 6.28552 6.49398 5.66744 6.03827 5.21173C5.58256 4.75602 4.96448 4.5 4.32 4.5H3V2.25C3 2.05109 2.92098 1.86032 2.78033 1.71967C2.63968 1.57902 2.44891 1.5 2.25 1.5C2.05109 1.5 1.86032 1.57902 1.71967 1.71967C1.57902 1.86032 1.5 2.05109 1.5 2.25V15C1.5 15.1989 1.57902 15.3897 1.71967 15.5303C1.86032 15.671 2.05109 15.75 2.25 15.75C2.44891 15.75 2.63968 15.671 2.78033 15.5303C2.92098 15.3897 3 15.1989 3 15V14.25H14.25V15C14.25 15.1989 14.329 15.3897 14.4697 15.5303C14.6103 15.671 14.8011 15.75 15 15.75C15.1989 15.75 15.3897 15.671 15.5303 15.5303C15.671 15.3897 15.75 15.1989 15.75 15V14.25H16.5V9.84C16.5 9.53271 16.4395 9.22842 16.3219 8.94452C16.2043 8.66062 16.0319 8.40266 15.8146 8.18537C15.5973 7.96808 15.3394 7.79572 15.0555 7.67812C14.7716 7.56053 14.4673 7.5 14.16 7.5ZM3 6H4.32C4.44241 5.999 4.56379 6.02237 4.67707 6.06876C4.79036 6.11514 4.89328 6.18361 4.97984 6.27016C5.0664 6.35672 5.13486 6.45964 5.18124 6.57293C5.22763 6.68621 5.251 6.80759 5.25 6.93V7.5H3V6ZM3 12.75V9H14.16C14.3828 9 14.5964 9.0885 14.754 9.24603C14.9115 9.40356 15 9.61722 15 9.84V12.75H3Z" fill="#2E637F"/>
<path d="M13.5 10.5H6.75C6.55109 10.5 6.36032 10.579 6.21967 10.7197C6.07902 10.8603 6 11.0511 6 11.25C6 11.4489 6.07902 11.6397 6.21967 11.7803C6.36032 11.921 6.55109 12 6.75 12H13.5C13.6989 12 13.8897 11.921 14.0303 11.7803C14.171 11.6397 14.25 11.4489 14.25 11.25C14.25 11.0511 14.171 10.8603 14.0303 10.7197C13.8897 10.579 13.6989 10.5 13.5 10.5Z" fill="#2E637F"/>
</svg>
