<svg width="18" height="18" viewBox="0 0 18 18" fill="none" xmlns="http://www.w3.org/2000/svg">
<path d="M12.6147 1.5H5.38475C3.78725 1.5 2.48975 2.805 2.48975 4.395V14.9625C2.48975 16.3125 3.45725 16.8825 4.64225 16.23L8.30225 14.1975C8.69225 13.98 9.32225 13.98 9.70475 14.1975L13.3647 16.23C14.5497 16.89 15.5172 16.32 15.5172 14.9625V4.395C15.5097 2.805 14.2122 1.5 12.6147 1.5ZM11.2572 7.3125C10.5297 7.575 9.76475 7.71 8.99975 7.71C8.23475 7.71 7.46975 7.575 6.74225 7.3125C6.44975 7.2075 6.29975 6.885 6.40475 6.5925C6.51725 6.3 6.83975 6.15 7.13225 6.255C8.33975 6.69 9.66725 6.69 10.8747 6.255C11.1672 6.15 11.4897 6.3 11.5947 6.5925C11.6997 6.885 11.5497 7.2075 11.2572 7.3125Z" fill="#2E637F"/>
</svg>
