<svg width="45" height="45" viewBox="0 0 45 45" fill="none" xmlns="http://www.w3.org/2000/svg">
<path fill-rule="evenodd" clip-rule="evenodd" d="M22.5 4.21973C12.4035 4.21973 4.21875 12.4045 4.21875 22.501C4.21875 32.5974 12.4035 40.7822 22.5 40.7822C32.5965 40.7822 40.7812 32.5974 40.7812 22.501C40.7812 12.4045 32.5965 4.21973 22.5 4.21973ZM44.1193 4.63161C44.6685 5.18078 44.6685 6.07117 44.1193 6.62035L23.4943 27.2453C22.9451 27.7945 22.0548 27.7945 21.5056 27.2453L15.8806 21.6203C15.3314 21.0712 15.3314 20.1808 15.8806 19.6316C16.4298 19.0824 17.3201 19.0824 17.8693 19.6316L22.4999 24.2622L42.1306 4.63161C42.6798 4.08243 43.5701 4.08243 44.1193 4.63161Z" fill="#3498F5"/>
</svg>
