<svg width="32" height="32" viewBox="0 0 32 32" fill="none" xmlns="http://www.w3.org/2000/svg">
<rect width="32" height="32" rx="16" fill="#27EEB2"/>
<path d="M13.6875 10.8375L12.7566 9.29564C12.4075 8.72836 11.7166 8.40836 11.0693 8.59745C10.0948 8.88836 9.71662 9.98655 10.2039 10.7938L11.1639 12.372C11.273 12.5393 11.4984 12.5975 11.6657 12.4956L13.5639 11.3393C13.7384 11.2302 13.7966 11.0047 13.6875 10.8375Z" fill="white"/>
<path d="M21.6292 17.6098L19.5855 14.8462C18.8728 13.8862 17.6365 13.4353 16.4728 13.748C16.4728 13.7407 16.4655 13.7407 16.4655 13.7335L15.2583 11.748C15.0401 11.4062 14.5892 11.2971 14.2474 11.508L11.7237 13.0425C11.3746 13.2462 11.2655 13.7044 11.4765 14.0535L12.6765 16.0389C12.6765 16.0389 12.6765 16.0462 12.6837 16.0462C11.8765 16.9407 11.7019 18.2425 12.2401 19.3262L13.7528 22.4098C14.2183 23.3625 15.3165 23.7262 16.2474 23.2462C16.3201 23.2098 16.3419 23.1225 16.2983 23.0498L15.1637 21.1735C15.0037 20.9116 15.0837 20.5771 15.3455 20.4098C15.6074 20.2571 15.9419 20.3371 16.1092 20.5916L17.251 22.468C17.2946 22.5335 17.3819 22.5553 17.4474 22.5189L18.1455 22.0971C18.211 22.0535 18.2328 21.9662 18.1965 21.9007L17.0546 20.0244C16.9019 19.7625 16.9819 19.428 17.2365 19.2607C17.5055 19.108 17.8401 19.188 18.0001 19.4425L19.1419 21.3189C19.1855 21.3844 19.2728 21.4062 19.3383 21.3698L20.0365 20.948C20.1019 20.9044 20.1237 20.8171 20.0874 20.7516L18.9455 18.8753C18.7928 18.6135 18.8728 18.2789 19.1274 18.1116C19.3965 17.9589 19.731 18.0389 19.891 18.2935L21.0401 20.1625C21.0837 20.228 21.171 20.2498 21.2365 20.2062C22.0801 19.6025 22.2692 18.468 21.6292 17.6098Z" fill="white"/>
</svg>
