<svg width="18" height="18" viewBox="0 0 18 18" fill="none" xmlns="http://www.w3.org/2000/svg">
<path d="M16.2599 12.7197L13.9124 7.23723C13.1174 5.37723 11.6549 5.30223 10.6724 7.07223L9.25494 9.62973C8.53494 10.9272 7.19244 11.0397 6.26244 9.87723L6.09744 9.66723C5.12994 8.45223 3.76494 8.60223 3.06744 9.98973L1.77744 12.5772C0.869944 14.3772 2.18244 16.4997 4.19244 16.4997H13.7624C15.7124 16.4997 17.0249 14.5122 16.2599 12.7197Z" stroke="white" stroke-width="1.125" stroke-linecap="round" stroke-linejoin="round"/>
<path d="M5.22754 6C6.47018 6 7.47754 4.99264 7.47754 3.75C7.47754 2.50736 6.47018 1.5 5.22754 1.5C3.9849 1.5 2.97754 2.50736 2.97754 3.75C2.97754 4.99264 3.9849 6 5.22754 6Z" stroke="white" stroke-width="1.125" stroke-linecap="round" stroke-linejoin="round"/>
</svg>
