<svg width="18" height="18" viewBox="0 0 18 18" fill="none" xmlns="http://www.w3.org/2000/svg">
<path d="M8.0325 11.0325L5.5575 13.5H7.5C7.69891 13.5 7.88968 13.579 8.03033 13.7197C8.17098 13.8603 8.25 14.0511 8.25 14.25C8.25 14.4489 8.17098 14.6397 8.03033 14.7803C7.88968 14.921 7.69891 15 7.5 15H3.75C3.65452 14.9979 3.56034 14.9775 3.4725 14.94C3.38311 14.9034 3.30161 14.85 3.2325 14.7825C3.16028 14.7137 3.10251 14.6311 3.06259 14.5397C3.02266 14.4482 3.00139 14.3498 3 14.25V10.5C3 10.3011 3.07902 10.1103 3.21967 9.96967C3.36032 9.82902 3.55109 9.75 3.75 9.75C3.94891 9.75 4.13968 9.82902 4.28033 9.96967C4.42098 10.1103 4.5 10.3011 4.5 10.5V12.4425L6.9675 9.9675C7.10873 9.82627 7.30027 9.74693 7.5 9.74693C7.69973 9.74693 7.89127 9.82627 8.0325 9.9675C8.17373 10.1087 8.25307 10.3003 8.25307 10.5C8.25307 10.6997 8.17373 10.8913 8.0325 11.0325ZM14.94 3.465C14.9034 3.37561 14.85 3.29411 14.7825 3.225C14.713 3.15413 14.6302 3.09776 14.5388 3.05913C14.4474 3.02051 14.3492 3.00041 14.25 3H10.5C10.3011 3 10.1103 3.07902 9.96967 3.21967C9.82902 3.36032 9.75 3.55109 9.75 3.75C9.75 3.94891 9.82902 4.13968 9.96967 4.28033C10.1103 4.42098 10.3011 4.5 10.5 4.5H12.4425L9.9675 6.9675C9.82627 7.10873 9.74693 7.30027 9.74693 7.5C9.74693 7.69973 9.82627 7.89127 9.9675 8.0325C10.1087 8.17373 10.3003 8.25307 10.5 8.25307C10.6997 8.25307 10.8913 8.17373 11.0325 8.0325L13.5 5.5575V7.5C13.5 7.69891 13.579 7.88968 13.7197 8.03033C13.8603 8.17098 14.0511 8.25 14.25 8.25C14.4489 8.25 14.6397 8.17098 14.7803 8.03033C14.921 7.88968 15 7.69891 15 7.5V3.75C14.9988 3.65199 14.9784 3.55517 14.94 3.465Z" fill="#2E637F"/>
</svg>
