<svg width="18" height="18" viewBox="0 0 18 18" fill="none" xmlns="http://www.w3.org/2000/svg">
<path d="M7.5 3C7.5 3.19891 7.42098 3.38968 7.28033 3.53033C7.13968 3.67098 6.94891 3.75 6.75 3.75H4.8075L6.5325 5.4675C6.67373 5.60873 6.75307 5.80027 6.75307 6C6.75307 6.19973 6.67373 6.39127 6.5325 6.5325C6.39127 6.67373 6.19973 6.75307 6 6.75307C5.80027 6.75307 5.60873 6.67373 5.4675 6.5325L3.75 4.8075V6.75C3.75 6.94891 3.67098 7.13968 3.53033 7.28033C3.38968 7.42098 3.19891 7.5 3 7.5C2.80109 7.5 2.61032 7.42098 2.46967 7.28033C2.32902 7.13968 2.25 6.94891 2.25 6.75V3C2.25083 2.80325 2.32894 2.6147 2.4675 2.475C2.53696 2.40413 2.61979 2.34776 2.7112 2.30913C2.80261 2.27051 2.90077 2.25041 3 2.25H6.75C6.94891 2.25 7.13968 2.32902 7.28033 2.46967C7.42098 2.61032 7.5 2.80109 7.5 3ZM6.75 14.25H4.8075L6.5325 12.5325C6.67373 12.3913 6.75307 12.1997 6.75307 12C6.75307 11.8003 6.67373 11.6087 6.5325 11.4675C6.39127 11.3263 6.19973 11.2469 6 11.2469C5.80027 11.2469 5.60873 11.3263 5.4675 11.4675L3.75 13.1925V11.25C3.75 11.0511 3.67098 10.8603 3.53033 10.7197C3.38968 10.579 3.19891 10.5 3 10.5C2.80109 10.5 2.61032 10.579 2.46967 10.7197C2.32902 10.8603 2.25 11.0511 2.25 11.25V15C2.25083 15.1968 2.32894 15.3853 2.4675 15.525C2.53661 15.5925 2.61811 15.6459 2.7075 15.6825C2.79945 15.7245 2.89895 15.7474 3 15.75H6.75C6.94891 15.75 7.13968 15.671 7.28033 15.5303C7.42098 15.3897 7.5 15.1989 7.5 15C7.5 14.8011 7.42098 14.6103 7.28033 14.4697C7.13968 14.329 6.94891 14.25 6.75 14.25ZM15.69 2.715C15.6534 2.62561 15.6 2.54411 15.5325 2.475C15.463 2.40413 15.3802 2.34776 15.2888 2.30913C15.1974 2.27051 15.0992 2.25041 15 2.25H11.25C11.0511 2.25 10.8603 2.32902 10.7197 2.46967C10.579 2.61032 10.5 2.80109 10.5 3C10.5 3.19891 10.579 3.38968 10.7197 3.53033C10.8603 3.67098 11.0511 3.75 11.25 3.75H13.1925L11.4675 5.4675C11.3263 5.60873 11.2469 5.80027 11.2469 6C11.2469 6.19973 11.3263 6.39127 11.4675 6.5325C11.6087 6.67373 11.8003 6.75307 12 6.75307C12.1997 6.75307 12.3913 6.67373 12.5325 6.5325L14.25 4.8075V6.75C14.25 6.94891 14.329 7.13968 14.4697 7.28033C14.6103 7.42098 14.8011 7.5 15 7.5C15.1989 7.5 15.3897 7.42098 15.5303 7.28033C15.671 7.13968 15.75 6.94891 15.75 6.75V3C15.7488 2.90199 15.7284 2.80517 15.69 2.715ZM15 10.5C14.8011 10.5 14.6103 10.579 14.4697 10.7197C14.329 10.8603 14.25 11.0511 14.25 11.25V13.1925L12.5325 11.4675C12.4626 11.3976 12.3796 11.3421 12.2882 11.3043C12.1968 11.2664 12.0989 11.2469 12 11.2469C11.9011 11.2469 11.8032 11.2664 11.7118 11.3043C11.6204 11.3421 11.5374 11.3976 11.4675 11.4675C11.3976 11.5374 11.3421 11.6204 11.3043 11.7118C11.2664 11.8032 11.2469 11.9011 11.2469 12C11.2469 12.1997 11.3263 12.3913 11.4675 12.5325L13.1925 14.25H11.25C11.0511 14.25 10.8603 14.329 10.7197 14.4697C10.579 14.6103 10.5 14.8011 10.5 15C10.5 15.1989 10.579 15.3897 10.7197 15.5303C10.8603 15.671 11.0511 15.75 11.25 15.75H15C15.0955 15.7479 15.1897 15.7275 15.2775 15.69C15.4608 15.6139 15.6064 15.4683 15.6825 15.285C15.7235 15.1954 15.7464 15.0985 15.75 15V11.25C15.75 11.0511 15.671 10.8603 15.5303 10.7197C15.3897 10.579 15.1989 10.5 15 10.5Z" fill="#2E637F"/>
</svg>
