<svg width="19" height="18" viewBox="0 0 19 18" fill="none" xmlns="http://www.w3.org/2000/svg">
<path d="M8.699 11.0325L6.224 13.5H8.1665C8.36542 13.5 8.55618 13.579 8.69683 13.7197C8.83749 13.8603 8.9165 14.0511 8.9165 14.25C8.9165 14.4489 8.83749 14.6397 8.69683 14.7803C8.55618 14.921 8.36542 15 8.1665 15H4.4165C4.32103 14.9979 4.22684 14.9775 4.139 14.94C4.04961 14.9034 3.96812 14.85 3.899 14.7825C3.82678 14.7137 3.76901 14.6311 3.72909 14.5397C3.68917 14.4482 3.66789 14.3498 3.6665 14.25V10.5C3.6665 10.3011 3.74552 10.1103 3.88617 9.96967C4.02683 9.82902 4.21759 9.75 4.4165 9.75C4.61542 9.75 4.80618 9.82902 4.94683 9.96967C5.08749 10.1103 5.1665 10.3011 5.1665 10.5V12.4425L7.634 9.9675C7.77523 9.82627 7.96678 9.74693 8.1665 9.74693C8.36623 9.74693 8.55778 9.82627 8.699 9.9675C8.84023 10.1087 8.91957 10.3003 8.91957 10.5C8.91957 10.6997 8.84023 10.8913 8.699 11.0325ZM15.6065 3.465C15.5699 3.37561 15.5165 3.29411 15.449 3.225C15.3795 3.15413 15.2967 3.09776 15.2053 3.05913C15.1139 3.02051 15.0157 3.00041 14.9165 3H11.1665C10.9676 3 10.7768 3.07902 10.6362 3.21967C10.4955 3.36032 10.4165 3.55109 10.4165 3.75C10.4165 3.94891 10.4955 4.13968 10.6362 4.28033C10.7768 4.42098 10.9676 4.5 11.1665 4.5H13.109L10.634 6.9675C10.4928 7.10873 10.4134 7.30027 10.4134 7.5C10.4134 7.69973 10.4928 7.89127 10.634 8.0325C10.7752 8.17373 10.9668 8.25307 11.1665 8.25307C11.3662 8.25307 11.5578 8.17373 11.699 8.0325L14.1665 5.5575V7.5C14.1665 7.69891 14.2455 7.88968 14.3862 8.03033C14.5268 8.17098 14.7176 8.25 14.9165 8.25C15.1154 8.25 15.3062 8.17098 15.4468 8.03033C15.5875 7.88968 15.6665 7.69891 15.6665 7.5V3.75C15.6653 3.65199 15.6449 3.55517 15.6065 3.465Z" fill="#D9DBE1"/>
</svg>
