<svg width="21" height="22" viewBox="0 0 21 22" fill="none" xmlns="http://www.w3.org/2000/svg">
<path d="M7.58789 13.0386C7.58789 14.1674 8.45414 15.0774 9.53039 15.0774H11.7266C12.6629 15.0774 13.4241 14.2811 13.4241 13.3011C13.4241 12.2336 12.9604 11.8574 12.2691 11.6124L8.74289 10.3874C8.05164 10.1424 7.58789 9.76611 7.58789 8.69861C7.58789 7.71861 8.34914 6.92236 9.28539 6.92236H11.4816C12.5579 6.92236 13.4241 7.83236 13.4241 8.96111" stroke="#A6A8B1" stroke-width="1.3125" stroke-linecap="round" stroke-linejoin="round"/>
<path d="M10.5 5.75V16.25" stroke="#A6A8B1" stroke-width="1.3125" stroke-linecap="round" stroke-linejoin="round"/>
<path d="M13.125 19.75H7.875C3.5 19.75 1.75 18 1.75 13.625V8.375C1.75 4 3.5 2.25 7.875 2.25H13.125C17.5 2.25 19.25 4 19.25 8.375V13.625C19.25 18 17.5 19.75 13.125 19.75Z" stroke="#A6A8B1" stroke-width="1.3125" stroke-linecap="round" stroke-linejoin="round"/>
</svg>
