<svg width="32" height="32" viewBox="0 0 32 32" fill="none" xmlns="http://www.w3.org/2000/svg">
<rect width="32" height="32" rx="16" fill="#279AEE"/>
<path d="M22.0914 13.8174L19.6478 13.0127L18.8431 10.5691L20.6689 8.73638C20.0338 8.66161 19.3901 8.75231 18.8004 8.99969C18.2107 9.24707 17.6949 9.64272 17.3032 10.1482C16.9115 10.6537 16.6572 11.2519 16.5649 11.8847C16.4726 12.5176 16.5455 13.1635 16.7765 13.7598L15.3487 15.1893L16.7451 16.5857L17.0052 16.3274C17.1111 16.2259 17.2521 16.1693 17.3988 16.1693C17.5454 16.1693 17.6865 16.2259 17.7924 16.3274L18.1153 16.6503L18.8903 15.8753C19.4865 16.107 20.1325 16.1807 20.7656 16.0892C21.3987 15.9977 21.9974 15.744 22.5036 15.3529C23.0098 14.9617 23.4063 14.4464 23.6546 13.8568C23.9028 13.2673 23.9945 12.6236 23.9207 11.9882L22.0914 13.8174ZM15.2824 18.0589L15.5425 17.8005L14.1461 16.4042L9.76503 20.773C9.48403 21.054 9.32617 21.4351 9.32617 21.8325C9.32617 22.2299 9.48403 22.611 9.76503 22.892C10.046 23.173 10.4271 23.3309 10.8245 23.3309C11.2219 23.3309 11.603 23.173 11.884 22.892L15.6071 19.169L15.2824 18.8461C15.1785 18.7414 15.1202 18.5999 15.1202 18.4525C15.1202 18.305 15.1785 18.1635 15.2824 18.0589ZM11.514 22.1118C11.4187 22.2069 11.2974 22.2716 11.1654 22.2978C11.0334 22.324 10.8966 22.3104 10.7723 22.2589C10.6479 22.2073 10.5417 22.12 10.4669 22.0081C10.3922 21.8962 10.3523 21.7646 10.3523 21.6301C10.3523 21.4955 10.3922 21.3639 10.4669 21.252C10.5417 21.1401 10.6479 21.0528 10.7723 21.0013C10.8966 20.9497 11.0334 20.9361 11.1654 20.9623C11.2974 20.9885 11.4187 21.0532 11.514 21.1483C11.6415 21.2762 11.713 21.4495 11.713 21.6301C11.713 21.8106 11.6415 21.9839 11.514 22.1118Z" fill="white"/>
<path d="M17.3962 16.3515C17.3462 16.3515 17.2968 16.3613 17.2506 16.3805C17.2045 16.3997 17.1626 16.4278 17.1274 16.4632L15.3994 18.1912C15.3281 18.2628 15.288 18.3598 15.288 18.4609C15.288 18.562 15.3281 18.6589 15.3994 18.7306L15.7223 19.0552L19.7211 23.0523C19.8346 23.1658 19.9693 23.2558 20.1175 23.3172C20.2658 23.3786 20.4247 23.4102 20.5851 23.4102C20.7456 23.4102 20.9045 23.3786 21.0527 23.3172C21.201 23.2558 21.3357 23.1658 21.4491 23.0523L21.9885 22.513C22.1019 22.3995 22.192 22.2648 22.2534 22.1165C22.3148 21.9683 22.3464 21.8094 22.3464 21.649C22.3464 21.4885 22.3148 21.3296 22.2534 21.1814C22.192 21.0331 22.1019 20.8984 21.9885 20.785L17.9914 16.7879L17.6667 16.4632C17.6312 16.4276 17.5891 16.3995 17.5426 16.3803C17.4962 16.3611 17.4464 16.3513 17.3962 16.3515ZM16.6264 16.7146L15.2301 15.3182L11.9137 12.0018C11.9032 11.9924 11.8954 11.9803 11.891 11.9669L11.5175 10.787L9.31822 9.39062L8.31982 10.3611L9.71619 12.5621L10.8979 12.9356C10.9108 12.9401 10.9227 12.9472 10.9328 12.9566L14.2491 16.273L15.6455 17.6693L16.6264 16.7146Z" fill="white"/>
</svg>
