<svg width="20" height="20" viewBox="0 0 20 20" fill="none" xmlns="http://www.w3.org/2000/svg">
<path d="M2.15016 15.8417L2.1335 15.8583C1.9085 15.3667 1.76683 14.8083 1.7085 14.1917C1.76683 14.8 1.92516 15.35 2.15016 15.8417Z" fill="#767470"/>
<path d="M7.49994 8.65002C8.5953 8.65002 9.48327 7.76205 9.48327 6.66668C9.48327 5.57132 8.5953 4.68335 7.49994 4.68335C6.40457 4.68335 5.5166 5.57132 5.5166 6.66668C5.5166 7.76205 6.40457 8.65002 7.49994 8.65002Z" fill="#767470"/>
<path d="M13.4915 1.66663H6.50817C3.47484 1.66663 1.6665 3.47496 1.6665 6.50829V13.4916C1.6665 14.4 1.82484 15.1916 2.13317 15.8583C2.84984 17.4416 4.38317 18.3333 6.50817 18.3333H13.4915C16.5248 18.3333 18.3332 16.525 18.3332 13.4916V11.5833V6.50829C18.3332 3.47496 16.5248 1.66663 13.4915 1.66663ZM16.9748 10.4166C16.3248 9.85829 15.2748 9.85829 14.6248 10.4166L11.1582 13.3916C10.5082 13.95 9.45817 13.95 8.80817 13.3916L8.52484 13.1583C7.93317 12.6416 6.9915 12.5916 6.32484 13.0416L3.20817 15.1333C3.02484 14.6666 2.9165 14.125 2.9165 13.4916V6.50829C2.9165 4.15829 4.15817 2.91663 6.50817 2.91663H13.4915C15.8415 2.91663 17.0832 4.15829 17.0832 6.50829V10.5083L16.9748 10.4166Z" fill="#767470"/>
</svg>
