<svg width="32" height="32" viewBox="0 0 32 32" fill="none" xmlns="http://www.w3.org/2000/svg">
<rect width="32" height="32" rx="16" fill="#A2EE27"/>
<path d="M20.6041 11.3976L12.0659 19.9358C11.7459 20.2558 11.2077 20.2122 10.9459 19.834C10.0441 18.5176 9.51318 16.9612 9.51318 15.3612V12.1685C9.51318 11.5722 9.96409 10.8958 10.5168 10.6703L14.5677 9.01215C15.4841 8.63397 16.5023 8.63397 17.4186 9.01215L20.3641 10.2122C20.8441 10.4085 20.9677 11.034 20.6041 11.3976Z" fill="white"/>
<path d="M21.2874 12.393C21.7601 11.993 22.4801 12.3348 22.4801 12.953V15.3603C22.4801 18.9166 19.8983 22.2475 16.371 23.2221C16.131 23.2875 15.8692 23.2875 15.622 23.2221C14.5892 22.9312 13.6292 22.4439 12.8074 21.8039C12.4583 21.5348 12.422 21.0257 12.7274 20.713C14.3129 19.0912 18.9529 14.3639 21.2874 12.393Z" fill="white"/>
</svg>
