<svg width="89" height="24" viewBox="0 0 89 24" fill="none" xmlns="http://www.w3.org/2000/svg">
<path d="M40.9556 6.89941V16.4792C40.9556 17.2658 40.8206 17.9791 40.5505 18.6191C40.2939 19.2724 39.9429 19.8324 39.4972 20.2991C39.0381 20.7657 38.498 21.119 37.8769 21.359C37.2557 21.6123 36.5873 21.739 35.8716 21.739C34.3525 21.739 33.198 21.279 32.3878 20.3791C31.5776 19.4724 31.1725 18.2391 31.1725 16.6792V6.89941H28.6406V17.2991C28.6406 18.2858 28.7892 19.1924 29.0862 20.0191C29.3833 20.8457 29.8087 21.5524 30.3623 22.139C30.9294 22.739 31.6113 23.199 32.408 23.519C33.2047 23.839 34.1162 23.999 35.1424 23.999C36.6008 23.999 37.7958 23.679 38.7276 23.059C39.6458 22.419 40.3885 21.6457 40.9556 20.739V23.659H43.447V6.89941H40.9556Z" fill="white"/>
<path fill-rule="evenodd" clip-rule="evenodd" d="M65.2816 0V23.6594H62.7498V20.2795C62.3987 20.7861 62.0071 21.2594 61.575 21.6994C61.1564 22.1527 60.6838 22.5527 60.1571 22.8994C59.6305 23.246 59.0431 23.5194 58.395 23.7194C57.7468 23.906 57.0311 23.9994 56.248 23.9994C55.2217 24.0127 54.2292 23.8194 53.2705 23.4194C52.2982 23.0327 51.434 22.4661 50.6779 21.7194C49.9082 20.9728 49.2938 20.0595 48.8347 18.9795C48.3756 17.8995 48.146 16.6729 48.146 15.2996C48.146 13.913 48.3756 12.6797 48.8347 11.5997C49.2803 10.5197 49.9082 9.59974 50.6779 8.85976C51.434 8.11312 52.2982 7.5398 53.2705 7.13981C54.2292 6.73982 55.2217 6.53982 56.248 6.53982C57.0311 6.53982 57.7536 6.63982 58.4152 6.83982C59.0634 7.01981 59.6508 7.2798 60.1774 7.61979C60.704 7.93979 61.1834 8.31311 61.6155 8.73977C62.0341 9.17975 62.4122 9.63307 62.7498 10.0997V0H65.2816ZM62.8511 15.2596C62.8511 14.2863 62.6823 13.4063 62.3447 12.6197C62.0071 11.8197 61.548 11.1397 60.9673 10.5797C60.3867 10.0197 59.725 9.58641 58.9824 9.27975C58.2532 8.95976 57.497 8.79976 56.7138 8.79976C55.8766 8.8131 55.1002 8.95976 54.3845 9.23975C53.6553 9.53308 53.0274 9.95306 52.5008 10.4997C51.9607 11.0464 51.5286 11.7264 51.2045 12.5397C50.8939 13.3396 50.7386 14.2463 50.7386 15.2596C50.7386 16.2462 50.8939 17.1395 51.2045 17.9395C51.5286 18.7395 51.9539 19.4195 52.5211 19.9795C53.0477 20.5394 53.6958 20.9794 54.425 21.2794C55.1407 21.5861 55.9036 21.7394 56.7138 21.7394C57.497 21.7394 58.2532 21.5861 58.9824 21.2794C59.725 20.9594 60.3867 20.5194 60.9673 19.9595C61.548 19.3995 62.0071 18.7195 62.3447 17.9195C62.6823 17.1062 62.8511 16.2196 62.8511 15.2596Z" fill="white"/>
<path d="M86.7315 6.8998C86.0428 7.1198 85.3947 7.43979 84.787 7.85978C84.2064 8.2731 83.6865 8.77308 83.2274 9.35974C82.7683 9.94639 82.3835 10.5864 82.0729 11.2797V6.8998H79.541V23.6593H82.0729V16.9795C82.0729 15.7262 82.2484 14.6196 82.5995 13.6596C82.9506 12.6996 83.43 11.893 84.0376 11.2397C84.6588 10.5864 85.3744 10.0997 86.1846 9.77972C87.0083 9.45973 87.8793 9.29974 88.7975 9.29974H89.0001V6.59981C88.1899 6.58648 87.4337 6.68647 86.7315 6.8998Z" fill="white"/>
<path d="M76.4421 0L73.4443 4.35988H71.3783L68.3604 0H76.4421Z" fill="white"/>
<path d="M76.746 16.86L72.4114 23.6598L68.0566 16.86L71.8241 6.28027H72.9786L76.746 16.86Z" fill="white"/>
<path d="M11.4643 9.37975L0 0V23.6594H2.73441V5.71985L9.31725 11.1197L11.4643 9.37975Z" fill="white"/>
<path d="M23.8603 0L5.16504 15.2596V23.6594H18.6345V15.2596L14.5025 11.8797L12.3758 13.6196L15.9204 16.5196V20.9594H7.89945V16.5196L21.1461 5.71985V23.6594H23.8603V0Z" fill="white"/>
</svg>
