<svg width="32" height="32" viewBox="0 0 32 32" fill="none" xmlns="http://www.w3.org/2000/svg">
<rect width="32" height="32" rx="16" fill="#EE2737"/>
<path d="M21.3756 16.0721V14.686C21.3743 14.5173 21.3157 14.3541 21.2093 14.2232C21.1029 14.0922 20.9552 14.0014 20.7903 13.9656L20.3208 13.8692V10.6178C20.3208 10.3918 20.231 10.1751 20.0712 10.0152C19.9113 9.85541 19.6946 9.76562 19.4686 9.76562C19.2425 9.76562 19.0258 9.85541 18.8659 10.0152C18.7061 10.1751 18.6163 10.3918 18.6163 10.6178V20.6998C18.6163 20.9258 18.7061 21.1426 18.8659 21.3024C19.0258 21.4623 19.2425 21.5521 19.4686 21.5521C19.6946 21.5521 19.9113 21.4623 20.0712 21.3024C20.231 21.1426 20.3208 20.9258 20.3208 20.6998V16.8857L20.7903 16.7892C20.9549 16.7541 21.1026 16.6639 21.209 16.5335C21.3154 16.4032 21.3742 16.2404 21.3756 16.0721ZM12.3517 18.6095H10.2549L10.6987 21.4363C10.7299 21.6316 10.8165 21.8139 10.9481 21.9616C11.0798 22.1093 11.2509 22.2162 11.4414 22.2696C11.6319 22.3231 11.8337 22.3209 12.0229 22.2632C12.2121 22.2056 12.3809 22.0949 12.5093 21.9444C12.6057 21.8298 12.6765 21.6959 12.717 21.5517C12.7575 21.4075 12.7667 21.2563 12.744 21.1083L12.3517 18.6095Z" fill="white"/>
<path d="M9.65036 13.3751C9.53464 13.3751 9.42006 13.3978 9.31315 13.4421C9.20624 13.4864 9.1091 13.5513 9.02728 13.6331C8.94545 13.715 8.88055 13.8121 8.83626 13.919C8.79198 14.0259 8.76919 14.1405 8.76919 14.2562V17.0702C8.76705 17.1872 8.78827 17.3035 8.83159 17.4123C8.87492 17.5211 8.93949 17.6201 9.02152 17.7037C9.10356 17.7872 9.20142 17.8536 9.30939 17.8988C9.41736 17.9441 9.53328 17.9674 9.65036 17.9674H12.5929C15.2557 18.3598 16.9634 19.2988 17.9732 20.0803V11.259C16.957 12.0437 15.2364 12.9859 12.5447 13.3751H9.65036ZM23.8841 15.0731H22.7232C22.6379 15.0731 22.5561 15.107 22.4958 15.1673C22.4354 15.2276 22.4016 15.3094 22.4016 15.3947C22.4016 15.48 22.4354 15.5618 22.4958 15.6221C22.5561 15.6824 22.6379 15.7163 22.7232 15.7163H23.8841C23.9694 15.7163 24.0512 15.6824 24.1115 15.6221C24.1718 15.5618 24.2057 15.48 24.2057 15.3947C24.2057 15.3094 24.1718 15.2276 24.1115 15.1673C24.0512 15.107 23.9694 15.0731 23.8841 15.0731ZM21.633 18.3598C21.5727 18.2999 21.4912 18.2662 21.4062 18.2662C21.3213 18.2662 21.2398 18.2999 21.1795 18.3598C21.1494 18.3897 21.1254 18.4252 21.1091 18.4644C21.0928 18.5036 21.0844 18.5456 21.0844 18.5881C21.0844 18.6305 21.0928 18.6726 21.1091 18.7118C21.1254 18.751 21.1494 18.7865 21.1795 18.8164L22.2215 19.8584C22.2515 19.8882 22.287 19.9117 22.3261 19.9278C22.3652 19.9438 22.4071 19.952 22.4493 19.9518C22.4916 19.9517 22.5334 19.9432 22.5724 19.9269C22.6114 19.9106 22.6468 19.8868 22.6765 19.8568C22.7063 19.8268 22.7299 19.7912 22.7459 19.7521C22.7619 19.713 22.7701 19.6712 22.77 19.6289C22.7698 19.5867 22.7614 19.5449 22.745 19.5059C22.7287 19.4669 22.7049 19.4315 22.6749 19.4017L21.633 18.3598ZM21.3918 12.5003C21.4343 12.5001 21.4764 12.4915 21.5156 12.475C21.5548 12.4584 21.5903 12.4342 21.6201 12.4038L22.6621 11.3651C22.6947 11.335 22.7208 11.2984 22.7386 11.2577C22.7564 11.2171 22.7656 11.1731 22.7656 11.1287C22.7656 11.0843 22.7564 11.0404 22.7386 10.9997C22.7208 10.959 22.6947 10.9225 22.6621 10.8923C22.6018 10.8324 22.5203 10.7988 22.4353 10.7988C22.3504 10.7988 22.2689 10.8324 22.2086 10.8923L21.1666 11.9343C21.1067 11.9946 21.0731 12.0761 21.0731 12.161C21.0731 12.246 21.1067 12.3275 21.1666 12.3878C21.1947 12.4207 21.2291 12.4476 21.2677 12.467C21.3064 12.4863 21.3486 12.4977 21.3918 12.5003ZM22.0993 13.8124C22.1229 13.8718 22.1637 13.9227 22.2163 13.9588C22.269 13.9949 22.3313 14.0144 22.3951 14.015C22.4372 14.0145 22.4787 14.0058 22.5173 13.9893L23.3728 13.6484C23.4521 13.6164 23.5155 13.5542 23.5489 13.4755C23.5824 13.3968 23.5833 13.308 23.5513 13.2287C23.5193 13.1494 23.4571 13.086 23.3784 13.0526C23.2997 13.0191 23.2109 13.0183 23.1316 13.0502L22.2761 13.3943C22.1974 13.4265 22.1345 13.4885 22.1014 13.5668C22.0682 13.6452 22.0675 13.7335 22.0993 13.8124ZM23.4178 17.2696L22.482 16.8676C22.4035 16.8344 22.315 16.8337 22.2361 16.8656C22.1571 16.8976 22.094 16.9596 22.0607 17.038C22.0275 17.1165 22.0268 17.2049 22.0587 17.2839C22.0907 17.3629 22.1527 17.426 22.2311 17.4593L23.1637 17.8581C23.2039 17.8772 23.2479 17.8871 23.2924 17.887C23.3665 17.8869 23.4382 17.8612 23.4955 17.8142C23.5528 17.7673 23.5922 17.702 23.6069 17.6294C23.6217 17.5568 23.6109 17.4814 23.5764 17.4158C23.542 17.3503 23.486 17.2986 23.4178 17.2696Z" fill="white"/>
</svg>
