<svg width="17" height="21" viewBox="0 0 17 21" fill="none" xmlns="http://www.w3.org/2000/svg">
<g clip-path="url(#clip0_20_1347)">
<path d="M16.2714 5.61639V15.3838C16.2714 19.2908 15.2999 20.2675 11.4142 20.2675H5.58566C1.69994 20.2675 0.728516 19.2908 0.728516 15.3838V5.61639C0.728516 1.70941 1.69994 0.732666 5.58566 0.732666H11.4142C15.2999 0.732666 16.2714 1.70941 16.2714 5.61639Z" stroke="#525356" stroke-width="1.5" stroke-linecap="round" stroke-linejoin="round"/>
<path d="M10.4424 4.15137H6.55664" stroke="#525356" stroke-width="1.5" stroke-linecap="round" stroke-linejoin="round"/>
<path d="M10.0056 15.9209C10.0056 16.2204 9.91726 16.5131 9.75181 16.762C9.58636 17.011 9.3512 17.2051 9.07607 17.3196C8.80093 17.4342 8.49819 17.4642 8.20611 17.4058C7.91403 17.3474 7.64573 17.2032 7.43515 16.9915C7.22458 16.7797 7.08117 16.51 7.02307 16.2163C6.96497 15.9226 6.99479 15.6182 7.10876 15.3416C7.22272 15.0649 7.41571 14.8285 7.66333 14.6621C7.91094 14.4958 8.20205 14.407 8.49986 14.407C8.8992 14.407 9.28218 14.5665 9.56456 14.8504C9.84693 15.1343 10.0056 15.5194 10.0056 15.9209V15.9209Z" stroke="#525356" stroke-width="1.5" stroke-linecap="round" stroke-linejoin="round"/>
</g>
<defs>
<clipPath id="clip0_20_1347">
<rect width="17" height="21" fill="white"/>
</clipPath>
</defs>
</svg>
