<svg width="34" height="34" viewBox="0 0 34 34" fill="none" xmlns="http://www.w3.org/2000/svg">
<rect width="34" height="34" rx="10" fill="white" fill-opacity="0.3"/>
<path d="M14.1702 12.0003C13.9839 12.1877 13.8794 12.4411 13.8794 12.7053C13.8794 12.9695 13.9839 13.2229 14.1702 13.4103L17.7102 17.0003L14.1702 20.5403C13.9839 20.7277 13.8794 20.9811 13.8794 21.2453C13.8794 21.5095 13.9839 21.7629 14.1702 21.9503C14.2631 22.044 14.3738 22.1184 14.4956 22.1692C14.6175 22.22 14.7482 22.2461 14.8802 22.2461C15.0122 22.2461 15.1429 22.22 15.2648 22.1692C15.3866 22.1184 15.4972 22.044 15.5902 21.9503L19.8302 17.7103C19.9239 17.6173 19.9983 17.5067 20.0491 17.3849C20.0998 17.263 20.126 17.1323 20.126 17.0003C20.126 16.8683 20.0998 16.7376 20.0491 16.6157C19.9983 16.4939 19.9239 16.3833 19.8302 16.2903L15.5902 12.0003C15.4972 11.9066 15.3866 11.8322 15.2648 11.7814C15.1429 11.7306 15.0122 11.7045 14.8802 11.7045C14.7482 11.7045 14.6175 11.7306 14.4956 11.7814C14.3738 11.8322 14.2632 11.9066 14.1702 12.0003Z" fill="white"/>
</svg>
