<svg width="40" height="40" viewBox="0 0 40 40" fill="none" xmlns="http://www.w3.org/2000/svg">
<path d="M11.6286 25.6121L11.9964 25.2433L11.6286 25.6121ZM11.6286 15.3429L11.2609 14.974L11.6286 15.3429ZM24.5038 28.1794L24.8715 28.5483L24.5038 28.1794ZM14.2037 28.1794L13.8359 28.5483V28.5483L14.2037 28.1794ZM19.3537 31.8101V32.331V31.8101ZM35.4667 17.2495L35.0989 16.8806L35.4667 17.2495ZM22.5915 4.4129L22.9592 4.78174L22.5915 4.4129ZM17.1464 23.4136C17.3501 23.2105 17.3506 22.8808 17.1475 22.6771C16.9445 22.4734 16.6147 22.4729 16.411 22.676L17.1464 23.4136ZM7.86648 19.0937L8.23477 18.7254L8.23422 18.7249L7.86648 19.0937ZM16.4949 10.6443C16.7368 10.8 17.0591 10.7301 17.2147 10.4882C17.3704 10.2463 17.3005 9.92404 17.0587 9.76836L16.4949 10.6443ZM15.597 9.44701L15.8789 9.00904L15.597 9.44701ZM10.779 6.97478L10.8551 6.45955L10.779 6.97478ZM1.58865 12.5162L1.95637 12.8851L1.58865 12.5162ZM7.42789 7.40304L7.6275 7.88411L7.42789 7.40304ZM2.78489 15.1465L2.59303 15.6307H2.59303L2.78489 15.1465ZM3.01593 15.2389L3.21433 14.7574L3.01593 15.2389ZM6.06511 17.2978L6.43284 16.9289V16.9289L6.06511 17.2978ZM5.88848 17.1228L5.52579 17.4966L5.88848 17.1228ZM2.07493 14.8652L2.2668 14.3809H2.2668L2.07493 14.8652ZM20.854 32.1602L20.4857 32.5284C20.4938 32.5365 20.5021 32.5443 20.5106 32.5518L20.854 32.1602ZM30.093 22.7636C29.9367 22.5222 29.6142 22.4532 29.3727 22.6095C29.1313 22.7659 29.0623 23.0883 29.2186 23.3298L30.093 22.7636ZM30.4174 24.223L29.9802 24.506L30.4174 24.223ZM32.8971 29.0265L33.4122 28.95L32.8971 29.0265ZM27.339 38.1893L27.7067 38.5581L27.339 38.1893ZM32.4675 32.3676L32.9482 32.5682L32.4675 32.3676ZM25.0709 37.9252L25.5547 37.7323L25.0709 37.9252ZM24.1818 35.8779L24.6385 35.6274L24.1818 35.8779ZM21.8344 33.0197L22.2021 32.6509L22.1903 32.6391L22.1778 32.6281L21.8344 33.0197ZM23.368 34.6444L23.7779 34.3231L23.368 34.6444ZM27.1814 38.3464L26.8136 37.9776L27.1814 38.3464ZM8.19693 19.4242L8.68016 19.6185L8.19693 19.4242ZM35.0989 16.8806L24.1361 27.8106L24.8715 28.5483L35.8344 17.6183L35.0989 16.8806ZM14.5714 27.8106L11.9964 25.2433L11.2609 25.9809L13.8359 28.5483L14.5714 27.8106ZM11.9964 15.7117L22.9592 4.78174L22.2238 4.04406L11.2609 14.974L11.9964 15.7117ZM30.3166 1.74349H31.3832V0.701823H30.3166V1.74349ZM38.1457 8.48411V9.54753H39.1873V8.48411H38.1457ZM31.3832 1.74349C33.1146 1.74349 34.3609 1.74459 35.3099 1.8718C36.2441 1.99702 36.8118 2.23582 37.2322 2.65491L37.9676 1.91723C37.3214 1.2729 36.4974 0.979997 35.4483 0.839367C34.414 0.700723 33.0852 0.701823 31.3832 0.701823V1.74349ZM39.1873 8.48411C39.1873 6.78733 39.1884 5.4622 39.0493 4.43061C38.9082 3.38387 38.6141 2.56178 37.9676 1.91723L37.2322 2.65491C37.6523 3.07378 37.8915 3.63916 38.017 4.56982C38.1446 5.51562 38.1457 6.7578 38.1457 8.48411H39.1873ZM11.9964 25.2433C10.772 24.0226 9.89172 23.1434 9.31102 22.3845C8.73946 21.6377 8.50782 21.0693 8.50782 20.4775H7.46616C7.46616 21.3896 7.84146 22.1783 8.48379 23.0176C9.11697 23.845 10.0575 24.7811 11.2609 25.9809L11.9964 25.2433ZM13.8359 28.5483C15.0394 29.7481 15.9783 30.6858 16.8081 31.317C17.65 31.9574 18.4403 32.331 19.3537 32.331V31.2893C18.7587 31.2893 18.1879 31.0577 17.4388 30.4879C16.6776 29.9089 15.7957 29.0312 14.5714 27.8106L13.8359 28.5483ZM35.8344 17.6183C37.383 16.0743 38.2668 15.2062 38.7317 14.0873L37.7697 13.6877C37.403 14.5704 36.7079 15.2764 35.0989 16.8806L35.8344 17.6183ZM38.1457 9.54753C38.1457 11.8162 38.1364 12.8051 37.7697 13.6877L38.7317 14.0873C39.1966 12.9682 39.1873 11.731 39.1873 9.54753H38.1457ZM22.9592 4.78174C24.568 3.17774 25.2764 2.4845 26.1624 2.11861L25.7648 1.15582C24.643 1.61905 23.7726 2.49989 22.2238 4.04406L22.9592 4.78174ZM30.3166 0.701823C28.1262 0.701823 26.8863 0.69265 25.7648 1.15582L26.1624 2.11861C27.0485 1.75266 28.0414 1.74349 30.3166 1.74349V0.701823ZM13.2839 27.2646L17.1464 23.4136L16.411 22.676L12.5484 26.5269L13.2839 27.2646ZM17.0587 9.76836L15.8789 9.00904L15.3151 9.88497L16.4949 10.6443L17.0587 9.76836ZM15.8789 9.00904C14.7023 8.25176 13.7952 7.66751 13.0231 7.25146C12.2444 6.83188 11.5716 6.56543 10.8551 6.45955L10.7028 7.49002C11.2544 7.57154 11.8073 7.77959 12.5289 8.16847C13.2572 8.56088 14.1251 9.11903 15.3151 9.88497L15.8789 9.00904ZM1.95637 12.8851C3.00865 11.836 4.1556 10.6926 5.19054 9.7485C5.70787 9.27657 6.191 8.86015 6.61537 8.53306C7.04781 8.19975 7.38916 7.983 7.6275 7.88411L7.22829 6.92198C6.85807 7.07559 6.42779 7.36247 5.97946 7.70802C5.52307 8.05979 5.01629 8.49747 4.48851 8.97894C3.43322 9.94164 2.26911 11.1024 1.22092 12.1474L1.95637 12.8851ZM10.8551 6.45955C9.64082 6.2801 8.38619 6.44155 7.22829 6.92198L7.6275 7.88411C8.61626 7.47386 9.68057 7.33895 10.7028 7.49002L10.8551 6.45955ZM1.88307 15.3494L2.59303 15.6307L2.97675 14.6623L2.2668 14.3809L1.88307 15.3494ZM5.69737 17.6666L7.49875 19.4626L8.23422 18.7249L6.43284 16.9289L5.69737 17.6666ZM2.59303 15.6307C2.71022 15.6771 2.76441 15.6986 2.81752 15.7205L3.21433 14.7574C3.15321 14.7322 3.09145 14.7077 2.97675 14.6623L2.59303 15.6307ZM6.43284 16.9289C6.34556 16.8419 6.29858 16.795 6.25117 16.749L5.52579 17.4966C5.56697 17.5366 5.6082 17.5777 5.69737 17.6666L6.43284 16.9289ZM2.81752 15.7205C3.82533 16.1357 4.74446 16.7385 5.52579 17.4966L6.25117 16.749C5.37489 15.8988 4.34422 15.2229 3.21433 14.7574L2.81752 15.7205ZM1.22092 12.1474C0.22277 13.1425 0.573632 14.8305 1.88307 15.3494L2.2668 14.3809C1.65262 14.1376 1.49082 13.3492 1.95637 12.8851L1.22092 12.1474ZM29.2186 23.3298L29.9802 24.506L30.8546 23.9399L30.093 22.7636L29.2186 23.3298ZM26.9712 37.8205L26.8136 37.9776L27.5491 38.7152L27.7067 38.5581L26.9712 37.8205ZM29.9802 24.506C30.7485 25.6925 31.3083 26.5578 31.7018 27.2837C32.0918 28.0031 32.3002 28.5539 32.3819 29.1031L33.4122 28.95C33.3059 28.2349 33.0385 27.5637 32.6176 26.7873C32.2002 26.0174 31.6141 25.1129 30.8546 23.9399L29.9802 24.506ZM27.7067 38.5581C28.7548 37.5131 29.9191 36.3525 30.8847 35.3003C31.3676 34.7741 31.8066 34.2688 32.1595 33.8138C32.506 33.3668 32.7939 32.9377 32.9482 32.5682L31.9869 32.1669C31.8878 32.4042 31.6706 32.7443 31.3363 33.1755C31.0082 33.5986 30.5906 34.0802 30.1172 34.596C29.1703 35.6278 28.0235 36.7713 26.9712 37.8205L27.7067 38.5581ZM32.3819 29.1031C32.5333 30.1214 32.3981 31.1817 31.9869 32.1669L32.9482 32.5682C33.4303 31.4132 33.5924 30.1615 33.4122 28.95L32.3819 29.1031ZM22.1778 32.6281L21.1974 31.7685L20.5106 32.5518L21.491 33.4114L22.1778 32.6281ZM25.5547 37.7323C25.1446 36.7033 24.9244 36.1487 24.6385 35.6274L23.7252 36.1283C23.9734 36.5809 24.168 37.0665 24.5871 38.118L25.5547 37.7323ZM21.4667 33.3886C22.2692 34.1887 22.6395 34.5591 22.9581 34.9656L23.7779 34.3231C23.4111 33.855 22.9874 33.4339 22.2021 32.6509L21.4667 33.3886ZM24.6385 35.6274C24.3876 35.17 24.0998 34.7338 23.7779 34.3231L22.9581 34.9656C23.245 35.3318 23.5016 35.7207 23.7252 36.1283L24.6385 35.6274ZM29.2861 14.974C28.0673 16.1893 26.0904 16.1893 24.8715 14.974L24.1361 15.7117C25.7615 17.3322 28.3962 17.3322 30.0216 15.7117L29.2861 14.974ZM24.8715 14.974C23.6535 13.7597 23.6535 11.7914 24.8715 10.5771L24.1361 9.83941C22.5098 11.4608 22.5098 14.0903 24.1361 15.7117L24.8715 14.974ZM24.8715 10.5771C26.0904 9.36186 28.0673 9.36186 29.2861 10.5771L30.0216 9.83941C28.3962 8.21886 25.7615 8.21886 24.1361 9.83941L24.8715 10.5771ZM29.2861 10.5771C30.5042 11.7914 30.5042 13.7597 29.2861 14.974L30.0216 15.7117C31.6479 14.0903 31.6479 11.4608 30.0216 9.83941L29.2861 10.5771ZM26.8136 37.9776C26.4209 38.3691 25.7507 38.224 25.5547 37.7323L24.5871 38.118C25.0663 39.32 26.639 39.6226 27.5491 38.7152L26.8136 37.9776ZM24.1361 27.8106C23.1856 28.7582 22.4389 29.5022 21.7898 30.0629C21.1397 30.6243 20.6246 30.9681 20.1467 31.1442L20.5068 32.1216C21.16 31.881 21.7877 31.441 22.4706 30.8512C23.1544 30.2607 23.9307 29.4863 24.8715 28.5483L24.1361 27.8106ZM20.1467 31.1442C19.8806 31.2422 19.6225 31.2893 19.3537 31.2893V32.331C19.7516 32.331 20.1313 32.2599 20.5068 32.1216L20.1467 31.1442ZM21.2223 31.7919L20.695 31.2646L19.9585 32.0012L20.4857 32.5284L21.2223 31.7919ZM11.2609 14.974C10.343 15.8892 9.58146 16.6481 8.99535 17.3169C8.41018 17.9848 7.96792 18.5977 7.71371 19.2299L8.68016 19.6185C8.8689 19.1491 9.22007 18.6411 9.7788 18.0034C10.3366 17.3669 11.0694 16.6358 11.9964 15.7117L11.2609 14.974ZM7.71371 19.2299C7.55065 19.6353 7.46616 20.0453 7.46616 20.4775H8.50782C8.50782 20.1875 8.56329 19.9091 8.68016 19.6185L7.71371 19.2299ZM7.4982 19.462L7.82865 19.7925L8.56522 19.0559L8.23477 18.7254L7.4982 19.462Z" fill="#3498F5"/>
</svg>
