<svg width="39" height="39" viewBox="0 0 39 39" fill="none" xmlns="http://www.w3.org/2000/svg">
<path d="M6.94236 7.53961L7.46278 7.51895L6.94236 7.53961ZM32.7241 7.53961L32.2037 7.51895V7.51895L32.7241 7.53961ZM27.9388 1.3179L27.8521 1.83147L27.9388 1.3179ZM11.7277 1.3179L11.6411 0.804322L11.7277 1.3179ZM7.68365 2.93658L8.08798 3.26488V3.26488L7.68365 2.93658ZM19.3124 32.1571C19.3124 32.4448 19.5455 32.6779 19.8332 32.6779C20.1208 32.6779 20.354 32.4448 20.354 32.1571L19.3124 32.1571ZM13.3513 37.713L12.8406 37.6109C12.81 37.7639 12.8496 37.9226 12.9486 38.0433C13.0475 38.1639 13.1953 38.2339 13.3513 38.2339V37.713ZM26.3143 37.713V38.2339C26.4703 38.2339 26.6182 38.1639 26.7171 38.0433C26.816 37.9226 26.8556 37.7639 26.825 37.6109L26.3143 37.713ZM25.6861 34.5721L26.1968 34.4699L25.6861 34.5721ZM13.9795 34.5721L13.4688 34.4699L13.9795 34.5721ZM38.3518 12.0882L37.831 12.0882V12.0882L38.3518 12.0882ZM38.3518 12.2225L38.8727 12.2225V12.2225L38.3518 12.2225ZM34.5531 6.81759L34.7178 6.32348L34.5531 6.81759ZM35.4943 17.0788L35.2414 16.6235L35.4943 17.0788ZM37.9681 15.2655L37.5192 15.0014L37.9681 15.2655ZM37.8276 8.46179L38.2501 8.15726L37.8276 8.46179ZM1.31445 12.0882L0.793621 12.0882V12.0882L1.31445 12.0882ZM1.31446 12.2225L1.83529 12.2225V12.2225L1.31446 12.2225ZM5.11319 6.81759L4.94849 6.32348L5.11319 6.81759ZM4.17195 17.0788L4.42489 16.6235L4.17195 17.0788ZM1.69821 15.2655L2.1471 15.0014H2.1471L1.69821 15.2655ZM1.83871 8.46179L1.41618 8.15726H1.41618L1.83871 8.46179ZM16.8754 9.35871L16.9903 9.8667H16.9903L16.8754 9.35871ZM18.0696 8.45215L18.5245 8.70574L18.0696 8.45215ZM15.5444 12.582L15.1485 12.9205H15.1485L15.5444 12.582ZM16.5218 9.4387L16.4069 8.93071V8.93071L16.5218 9.4387ZM16.2415 14.3307L16.7599 14.3809L16.2415 14.3307ZM15.7854 12.8638L16.1812 12.5253H16.1812L15.7854 12.8638ZM18.7641 16.6493L18.5463 16.1762L18.5463 16.1762L18.7641 16.6493ZM16.2051 14.7067L15.6867 14.6564V14.6564L16.2051 14.7067ZM20.5713 16.4969L20.7891 16.0238H20.7891L20.5713 16.4969ZM19.0951 16.4969L19.313 16.97L19.313 16.97L19.0951 16.4969ZM19.8332 16.2458V15.725V16.2458ZM23.4613 14.7067L22.9429 14.7569V14.7569L23.4613 14.7067ZM20.9023 16.6493L20.6844 17.1224L20.6844 17.1224L20.9023 16.6493ZM23.881 12.8638L23.4852 12.5253L23.881 12.8638ZM23.4249 14.3307L23.9433 14.2804V14.2804L23.4249 14.3307ZM23.1446 9.4387L23.2595 8.93071L23.1446 9.4387ZM24.122 12.582L24.5179 12.9205L24.5179 12.9205L24.122 12.582ZM21.5968 8.45214L22.0518 8.19855L22.0518 8.19855L21.5968 8.45214ZM22.791 9.35871L22.6761 9.8667H22.6761L22.791 9.35871ZM21.4148 8.12556L20.9599 8.37915V8.37915L21.4148 8.12556ZM18.2516 8.12556L17.7967 7.87196V7.87196L18.2516 8.12556ZM8.72141 37.1924C8.43376 37.1924 8.20058 37.4256 8.20058 37.7133C8.20058 38.0009 8.43376 38.2341 8.72141 38.2341V37.1924ZM30.9436 38.2341C31.2313 38.2341 31.4645 38.0009 31.4645 37.7133C31.4645 37.4256 31.2313 37.1924 30.9436 37.1924V38.2341ZM6.42194 7.56028C6.5898 11.7885 7.14751 16.6485 9.04712 20.4646C10.001 22.3809 11.3016 24.0514 13.0761 25.2415C14.854 26.434 17.0757 27.1225 19.8333 27.1225V26.0809C17.2575 26.0809 15.2431 25.4407 13.6563 24.3764C12.066 23.3098 10.8733 21.7957 9.97964 20.0004C8.18413 16.3934 7.62966 11.7223 7.46278 7.51895L6.42194 7.56028ZM32.2037 7.51895C32.0368 11.7223 31.4824 16.3934 29.6869 20.0004C28.7932 21.7957 27.6005 23.3098 26.0102 24.3764C24.4234 25.4407 22.409 26.0809 19.8333 26.0809V27.1225C22.5908 27.1225 24.8125 26.434 26.5904 25.2415C28.3649 24.0514 29.6655 22.3809 30.6194 20.4646C32.519 16.6485 33.0767 11.7885 33.2446 7.56028L32.2037 7.51895ZM28.0254 0.804322C25.9169 0.448561 23.1668 0.154948 19.8333 0.154948V1.19661C23.1054 1.19661 25.7975 1.48481 27.8521 1.83147L28.0254 0.804322ZM19.8333 0.154948C16.4997 0.154948 13.7497 0.448561 11.6411 0.804322L11.8144 1.83147C13.869 1.48481 16.5611 1.19661 19.8333 1.19661V0.154948ZM33.2446 7.56028C33.3352 5.27648 33.4165 3.87602 32.3872 2.60828L31.5785 3.26488C32.3111 4.16713 32.2993 5.11203 32.2037 7.51895L33.2446 7.56028ZM27.8521 1.83147C30.0082 2.19526 30.8433 2.35934 31.5785 3.26488L32.3872 2.60828C31.3605 1.34384 30.0868 1.15213 28.0254 0.804322L27.8521 1.83147ZM7.46278 7.51895C7.36723 5.11202 7.35541 4.16713 8.08798 3.26488L7.27931 2.60828C6.24997 3.87602 6.33127 5.27649 6.42194 7.56028L7.46278 7.51895ZM11.6411 0.804322C9.57969 1.15213 8.30598 1.34384 7.27931 2.60828L8.08798 3.26488C8.82324 2.35934 9.65829 2.19526 11.8144 1.83147L11.6411 0.804322ZM19.3124 26.6017L19.3124 32.1571L20.354 32.1571L20.3541 26.6017L19.3124 26.6017ZM13.3513 38.2339H26.3143V37.1922H13.3513V38.2339ZM26.825 37.6109L26.1968 34.4699L25.1754 34.6742L25.8036 37.8152L26.825 37.6109ZM23.8702 32.5626H15.7954V33.6042H23.8702V32.5626ZM13.4688 34.4699L12.8406 37.6109L13.8621 37.8152L14.4902 34.6742L13.4688 34.4699ZM15.7954 32.5626C14.6644 32.5626 13.6906 33.3609 13.4688 34.4699L14.4902 34.6742C14.6147 34.0521 15.1609 33.6042 15.7954 33.6042V32.5626ZM26.1968 34.4699C25.975 33.3609 25.0012 32.5626 23.8702 32.5626V33.6042C24.5047 33.6042 25.051 34.0521 25.1754 34.6742L26.1968 34.4699ZM37.831 12.0882V12.2225L38.8727 12.2225L38.8727 12.0882L37.831 12.0882ZM32.6317 6.72612L34.3884 7.31169L34.7178 6.32348L32.9611 5.73791L32.6317 6.72612ZM35.2414 16.6235L29.7657 19.6656L30.2716 20.5762L35.7473 17.534L35.2414 16.6235ZM37.831 12.2225C37.831 13.0298 37.8304 13.5973 37.7856 14.0454C37.7419 14.482 37.6595 14.763 37.5192 15.0014L38.417 15.5297C38.6604 15.116 38.7698 14.6724 38.8221 14.149C38.8732 13.6372 38.8726 13.0092 38.8727 12.2225L37.831 12.2225ZM35.7473 17.534C36.435 17.152 36.9842 16.8475 37.4068 16.5543C37.8389 16.2544 38.1736 15.9433 38.417 15.5297L37.5192 15.0014C37.3789 15.2398 37.1734 15.4483 36.8129 15.6985C36.4429 15.9553 35.9471 16.2314 35.2414 16.6235L35.7473 17.534ZM38.8727 12.0882C38.8727 11.1339 38.8735 10.3744 38.8038 9.76401C38.7326 9.14028 38.5833 8.61961 38.2501 8.15726L37.4051 8.76632C37.5962 9.03146 37.709 9.3577 37.7689 9.88214C37.8303 10.4199 37.831 11.1099 37.831 12.0882L38.8727 12.0882ZM34.3884 7.31169C35.3165 7.62106 35.9708 7.84 36.4616 8.06829C36.9402 8.29094 37.214 8.50118 37.4051 8.76632L38.2501 8.15726C37.9169 7.69491 37.4701 7.38863 36.9009 7.12383C36.3439 6.86468 35.6231 6.62526 34.7178 6.32348L34.3884 7.31169ZM0.793621 12.0882L0.793625 12.2225L1.83529 12.2225L1.83529 12.0882L0.793621 12.0882ZM6.7052 5.73791L4.94849 6.32348L5.27789 7.31169L7.0346 6.72612L6.7052 5.73791ZM3.919 17.534L9.39474 20.5762L9.90062 19.6656L4.42489 16.6235L3.919 17.534ZM0.793625 12.2225C0.793647 13.0092 0.793065 13.6372 0.844216 14.149C0.896524 14.6724 1.00592 15.116 1.24932 15.5297L2.1471 15.0014C2.00681 14.763 1.92435 14.482 1.88072 14.0454C1.83593 13.5973 1.83531 13.0298 1.83529 12.2225L0.793625 12.2225ZM4.42489 16.6235C3.71922 16.2314 3.22343 15.9553 2.8534 15.6985C2.49292 15.4483 2.28738 15.2398 2.1471 15.0014L1.24932 15.5297C1.49272 15.9433 1.82736 16.2544 2.25949 16.5543C2.68207 16.8475 3.23131 17.152 3.91901 17.534L4.42489 16.6235ZM1.83529 12.0882C1.83526 11.1099 1.83603 10.4199 1.89741 9.88214C1.95727 9.3577 2.07014 9.03146 2.26123 8.76632L1.41618 8.15726C1.08295 8.61961 0.933659 9.14028 0.862464 9.76401C0.792789 10.3744 0.793596 11.1339 0.793621 12.0882L1.83529 12.0882ZM4.94849 6.32348C4.04315 6.62526 3.32241 6.86468 2.76535 7.12383C2.19614 7.38863 1.74941 7.69491 1.41618 8.15726L2.26123 8.76632C2.45233 8.50118 2.72612 8.29094 3.20472 8.0683C3.69546 7.84 4.34979 7.62106 5.27789 7.31169L4.94849 6.32348ZM20.9599 8.37915L21.1419 8.70574L22.0518 8.19855L21.8697 7.87196L20.9599 8.37915ZM22.6761 9.8667L23.0296 9.94669L23.2595 8.93071L22.906 8.85072L22.6761 9.8667ZM23.7262 12.2435L23.4852 12.5253L24.2769 13.2023L24.5179 12.9205L23.7262 12.2435ZM22.9065 14.3809L22.9429 14.7569L23.9797 14.6564L23.9433 14.2804L22.9065 14.3809ZM21.1201 16.1762L20.7891 16.0238L20.3534 16.97L20.6844 17.1224L21.1201 16.1762ZM18.8773 16.0238L18.5463 16.1762L18.982 17.1224L19.313 16.97L18.8773 16.0238ZM16.7235 14.7569L16.7599 14.3809L15.7231 14.2804L15.6867 14.6564L16.7235 14.7569ZM16.1812 12.5253L15.9402 12.2435L15.1485 12.9205L15.3895 13.2023L16.1812 12.5253ZM16.6368 9.94669L16.9903 9.8667L16.7604 8.85072L16.4069 8.93071L16.6368 9.94669ZM18.5245 8.70574L18.7065 8.37915L17.7967 7.87196L17.6146 8.19855L18.5245 8.70574ZM16.9903 9.8667C17.3338 9.78897 17.6621 9.72578 17.9286 9.52342L17.2988 8.69373C17.2536 8.72806 17.1935 8.75273 16.7604 8.85072L16.9903 9.8667ZM17.6146 8.19855C17.392 8.59788 17.3473 8.65692 17.2988 8.69373L17.9286 9.52342C18.1919 9.32354 18.3472 9.02386 18.5245 8.70574L17.6146 8.19855ZM15.9402 12.2435C15.4632 11.6857 15.1448 11.3113 14.9574 11.0136C14.7736 10.7216 14.7935 10.6228 14.8069 10.5799L13.8122 10.2705C13.663 10.7504 13.8346 11.1852 14.0759 11.5686C14.3137 11.9463 14.6939 12.3889 15.1485 12.9205L15.9402 12.2435ZM16.4069 8.93071C15.7413 9.08129 15.1814 9.20645 14.7733 9.3673C14.3553 9.53203 13.9632 9.78503 13.8122 10.2705L14.8069 10.5799C14.8185 10.5426 14.8493 10.457 15.1552 10.3364C15.4709 10.212 15.9358 10.1053 16.6368 9.94669L16.4069 8.93071ZM16.7599 14.3809C16.7957 14.0113 16.8374 13.6802 16.7394 13.365L15.7447 13.6743C15.7657 13.742 15.7674 13.824 15.7231 14.2804L16.7599 14.3809ZM15.3895 13.2023C15.6824 13.5448 15.7243 13.6088 15.7447 13.6743L16.7394 13.365C16.6406 13.0475 16.4178 12.802 16.1812 12.5253L15.3895 13.2023ZM18.5463 16.1762C17.89 16.4784 17.4535 16.6778 17.1281 16.771C16.8094 16.8623 16.7495 16.8066 16.7343 16.7951L16.1045 17.6248C16.5148 17.9363 16.9876 17.8948 17.415 17.7724C17.8357 17.6518 18.3589 17.4093 18.982 17.1224L18.5463 16.1762ZM15.6867 14.6564C15.6179 15.3664 15.5595 15.9558 15.5795 16.4054C15.5996 16.8558 15.7026 17.3197 16.1045 17.6248L16.7343 16.7951C16.7106 16.7771 16.6361 16.7161 16.6202 16.359C16.6042 16.0011 16.6514 15.5004 16.7235 14.7569L15.6867 14.6564ZM20.7891 16.0238C20.4692 15.8765 20.1668 15.725 19.8332 15.725V16.7667C19.885 16.7667 19.9462 16.7825 20.3534 16.97L20.7891 16.0238ZM19.313 16.97C19.7202 16.7825 19.7814 16.7667 19.8332 16.7667V15.725C19.4996 15.725 19.1972 15.8765 18.8773 16.0238L19.313 16.97ZM22.9429 14.7569C23.0149 15.5004 23.0622 16.0011 23.0462 16.359C23.0303 16.7161 22.9558 16.7771 22.9321 16.7951L23.5619 17.6248C23.9638 17.3197 24.0668 16.8558 24.0869 16.4054C24.1069 15.9558 24.0485 15.3664 23.9797 14.6564L22.9429 14.7569ZM20.6844 17.1224C21.3076 17.4093 21.8307 17.6518 22.2514 17.7724C22.6788 17.8948 23.1516 17.9363 23.5619 17.6248L22.9321 16.7951C22.9169 16.8066 22.857 16.8623 22.5383 16.771C22.2129 16.6778 21.7764 16.4784 21.1201 16.1762L20.6844 17.1224ZM23.4852 12.5253C23.2486 12.802 23.0258 13.0475 22.927 13.365L23.9217 13.6743C23.9421 13.6088 23.984 13.5448 24.2769 13.2023L23.4852 12.5253ZM23.9433 14.2804C23.899 13.824 23.9007 13.742 23.9217 13.6743L22.927 13.365C22.829 13.6802 22.8707 14.0113 22.9065 14.3809L23.9433 14.2804ZM23.0296 9.94669C23.7306 10.1053 24.1955 10.212 24.5112 10.3364C24.8171 10.457 24.8479 10.5426 24.8595 10.5799L25.8542 10.2705C25.7032 9.78503 25.3111 9.53203 24.8931 9.3673C24.485 9.20645 23.9251 9.08129 23.2595 8.93071L23.0296 9.94669ZM24.5179 12.9205C24.9725 12.3889 25.3527 11.9463 25.5905 11.5686C25.8318 11.1852 26.0034 10.7504 25.8542 10.2705L24.8595 10.5799C24.8729 10.6228 24.8928 10.7216 24.709 11.0136C24.5216 11.3113 24.2032 11.6857 23.7262 12.2435L24.5179 12.9205ZM21.1419 8.70574C21.3192 9.02386 21.4745 9.32354 21.7378 9.52342L22.3676 8.69373C22.3191 8.65692 22.2744 8.59788 22.0518 8.19855L21.1419 8.70574ZM22.906 8.85072C22.4729 8.75273 22.4128 8.72806 22.3676 8.69373L21.7378 9.52342C22.0043 9.72578 22.3326 9.78897 22.6761 9.8667L22.906 8.85072ZM21.8697 7.87196C21.5263 7.256 21.2412 6.74177 20.9709 6.38874C20.7003 6.03537 20.346 5.71118 19.8332 5.71118V6.75285C19.8464 6.75285 19.9311 6.74426 20.1439 7.02207C20.3569 7.30021 20.5995 7.73275 20.9599 8.37915L21.8697 7.87196ZM18.7065 8.37915C19.0669 7.73275 19.3095 7.30021 19.5225 7.02207C19.7353 6.74426 19.82 6.75285 19.8332 6.75285V5.71118C19.3204 5.71118 18.9661 6.03537 18.6955 6.38874C18.4252 6.74177 18.1401 7.256 17.7967 7.87196L18.7065 8.37915ZM8.72141 38.2341H30.9436V37.1924H8.72141V38.2341Z" fill="#3498F5"/>
</svg>
