<svg width="46" height="45" viewBox="0 0 46 45" fill="none" xmlns="http://www.w3.org/2000/svg">
<rect x="0.666504" width="45" height="45" rx="22.5" fill="#11D600" fill-opacity="0.1"/>
<path d="M13.9165 30.7499C15.0102 29.8863 15.9027 29.0218 17.329 28.8249C18.5637 28.8246 19.7524 29.2938 20.654 30.1374C21.1219 30.4652 21.6629 30.6734 22.2298 30.744C22.7967 30.8146 23.3723 30.7453 23.9062 30.5422C24.4402 30.3391 24.9164 30.0084 25.2931 29.579C25.6699 29.1495 25.9358 28.6344 26.0676 28.0785C26.6353 28.1797 27.2201 28.1186 27.7546 27.9022C28.2891 27.6857 28.7516 27.3228 29.0889 26.8551C29.4263 26.3874 29.6247 25.8339 29.6614 25.2584C29.6981 24.683 29.5716 24.1088 29.2964 23.602C29.798 23.44 30.2492 23.1512 30.6065 22.7636C30.9638 22.3761 31.215 21.9029 31.3358 21.3898C31.4567 20.8767 31.443 20.3411 31.2962 19.8348C31.1493 19.3285 30.8743 18.8687 30.4977 18.4999C30.7821 18.2155 31.0077 17.8779 31.1616 17.5063C31.3155 17.1347 31.3948 16.7365 31.3948 16.3343C31.3948 15.9321 31.3155 15.5338 31.1616 15.1623C31.0077 14.7907 30.7821 14.4531 30.4977 14.1687C30.2133 13.8843 29.8757 13.6587 29.5041 13.5048C29.1326 13.3508 28.7343 13.2716 28.3321 13.2716C27.5198 13.2716 26.7408 13.5943 26.1665 14.1687C25.7976 13.7921 25.3378 13.5171 24.8316 13.3702C24.3253 13.2234 23.7897 13.2097 23.2766 13.3305C22.7635 13.4514 22.2903 13.7026 21.9027 14.0599C21.5152 14.4172 21.2264 14.8684 21.0644 15.37C20.5576 15.0948 19.9834 14.9683 19.4079 15.005C18.8325 15.0417 18.279 15.2401 17.8113 15.5775C17.3436 15.9148 16.9807 16.3773 16.7642 16.9118C16.5478 17.4463 16.4866 18.0311 16.5879 18.5988C16.0368 18.733 15.5267 18.9991 15.1013 19.3741C14.6759 19.7492 14.348 20.222 14.1459 20.7519C13.9437 21.2818 13.8734 21.8529 13.9409 22.416C14.0084 22.9791 14.2117 23.5173 14.5334 23.9844C15.2281 24.9924 16.0244 26.1229 15.8415 27.3374C15.6017 28.775 14.8037 29.6404 13.9165 30.7499ZM13.9165 30.7499L27.0414 17.6249" stroke="#11D600" stroke-width="1.75" stroke-linecap="round" stroke-linejoin="round"/>
</svg>
