<svg width="32" height="32" viewBox="0 0 32 32" fill="none" xmlns="http://www.w3.org/2000/svg">
<rect width="32" height="32" rx="16" fill="#EEAA27"/>
<path d="M20.3642 11.6376C19.9205 11.6376 19.5132 11.3831 19.3096 10.9903L18.786 9.93579C18.4514 9.27397 17.5787 8.72852 16.8369 8.72852H15.1714C14.4223 8.72852 13.5496 9.27397 13.2151 9.93579L12.6914 10.9903C12.4878 11.3831 12.0805 11.6376 11.6369 11.6376C10.0587 11.6376 8.80779 12.9685 8.90961 14.5394L9.28779 20.5467C9.37507 22.0449 10.1823 23.274 12.1896 23.274H19.8114C21.8187 23.274 22.6187 22.0449 22.7132 20.5467L23.0914 14.5394C23.1932 12.9685 21.9423 11.6376 20.3642 11.6376ZM14.9096 12.5467H17.0914C17.3896 12.5467 17.6369 12.794 17.6369 13.0922C17.6369 13.3903 17.3896 13.6376 17.0914 13.6376H14.9096C14.6114 13.6376 14.3642 13.3903 14.3642 13.0922C14.3642 12.794 14.6114 12.5467 14.9096 12.5467ZM16.0005 20.4522C14.6478 20.4522 13.5423 19.354 13.5423 17.994C13.5423 16.634 14.6405 15.5358 16.0005 15.5358C17.3605 15.5358 18.4587 16.634 18.4587 17.994C18.4587 19.354 17.3532 20.4522 16.0005 20.4522Z" fill="white"/>
</svg>
