<svg width="32" height="32" viewBox="0 0 32 32" fill="none" xmlns="http://www.w3.org/2000/svg">
<rect width="32" height="32" rx="16" fill="#3727EE"/>
<path d="M21.0474 11.214L17.2874 9.03942C16.5674 8.62488 15.4401 8.62488 14.7201 9.03942L10.9238 11.2285C9.41833 12.2467 9.33105 12.3994 9.33105 14.0212V17.9703C9.33105 19.5922 9.41833 19.7522 10.9529 20.7849L14.7129 22.9594C15.0765 23.1703 15.542 23.2722 16.0001 23.2722C16.4583 23.2722 16.9238 23.1703 17.2801 22.9594L21.0765 20.7703C22.582 19.7522 22.6692 19.5994 22.6692 17.9776V14.0212C22.6692 12.3994 22.582 12.2467 21.0474 11.214ZM16.0001 18.3631C14.6983 18.3631 13.6365 17.3012 13.6365 15.9994C13.6365 14.6976 14.6983 13.6358 16.0001 13.6358C17.302 13.6358 18.3638 14.6976 18.3638 15.9994C18.3638 17.3012 17.302 18.3631 16.0001 18.3631Z" fill="white"/>
</svg>
