<svg width="45" height="45" viewBox="0 0 45 45" fill="none" xmlns="http://www.w3.org/2000/svg">
<rect width="45" height="45" rx="22.5" fill="#7327EE" fill-opacity="0.1"/>
<path d="M16 21.625H15.5625V17.6875H16H16.4375V21.625H16ZM27.6184 27.1288C27.7636 26.9307 27.9094 26.7589 28.0312 26.6248C28.1531 26.7589 28.2989 26.9307 28.4441 27.1288C28.8128 27.6315 29.125 28.2323 29.125 28.7841C29.125 29.437 28.6197 29.9375 28.0312 29.9375C27.4428 29.9375 26.9375 29.437 26.9375 28.7841C26.9375 28.2323 27.2497 27.6315 27.6184 27.1288ZM30 22.9375H30.4375V24.6875H25.1875V22.9375H25.625H26.0625V22.5V22.0625C26.0625 21.3376 25.4749 20.75 24.75 20.75V17.25H25.625C27.7996 17.25 29.5625 19.0129 29.5625 21.1875V22.5V22.9375H30ZM20.8125 17.25H23V22.0625H18.1875V17.25H19.9375H20.375H20.8125Z" fill="#7327EE" stroke="#7327EE" stroke-width="0.875"/>
</svg>
