<svg width="28" height="28" viewBox="0 0 28 28" fill="none" xmlns="http://www.w3.org/2000/svg">
<path d="M0 4.8125H28V23.1875H0V4.8125Z" fill="#3D9635"/>
<path d="M5.21506 8.80075C5.17393 9.44387 5.12143 10.5814 5.60793 10.6969C6.19506 10.7572 5.87043 9.576 6.08306 9.36162C6.12331 9.25662 6.19768 9.25662 6.20381 9.38875V10.395C6.19542 10.5018 6.2242 10.6082 6.28527 10.6962C6.34634 10.7843 6.43595 10.8485 6.53893 10.878C6.69293 10.8675 6.79531 10.8727 6.85568 11.0434C6.88106 11.6209 6.9038 12.1975 6.92743 12.775C6.92743 12.775 7.28706 12.8957 7.30368 11.802C7.26509 11.3691 7.25136 10.9344 7.26256 10.5C7.26256 10.3792 7.40256 10.3679 7.50231 10.4344C7.65631 10.5551 7.72456 10.703 7.96256 10.6426C8.32656 10.5271 8.54268 10.3355 8.54881 10.0161C8.53981 9.71091 8.48465 9.40882 8.38518 9.12012C8.4018 9.065 8.31343 8.9285 8.3318 8.87337C8.39655 8.98887 8.49455 8.9775 8.51643 8.87337C8.48036 8.66078 8.36997 8.4679 8.20493 8.32912C8.07543 8.20225 7.88468 8.23025 7.81555 8.49975C7.80884 8.8446 7.91415 9.18233 8.11568 9.46225C8.17715 9.61571 8.20201 9.78138 8.1883 9.94612C8.14001 9.9761 8.08187 9.98593 8.0264 9.97349C7.97093 9.96105 7.92256 9.92735 7.89168 9.87962C7.89168 9.87962 7.59943 9.63287 7.59943 9.583C7.66955 9.32801 7.66101 9.05779 7.57493 8.80775C7.5428 8.65613 7.47735 8.51356 7.3833 8.39037C7.31155 8.29675 7.21355 8.29675 7.16718 8.39037C7.06386 8.72451 7.07184 9.08316 7.18993 9.41237C7.25468 9.63287 7.3588 9.77025 7.31155 9.77025C7.27043 9.89625 7.18905 9.863 7.12955 9.72037C7.0587 9.41225 7.02492 9.09676 7.02893 8.78062C7.0018 8.533 6.97293 8.00537 6.82855 7.868C6.74106 7.73587 6.60893 7.80237 6.56606 7.92837C6.55554 8.16673 6.56051 8.40553 6.58093 8.64325C6.66641 9.02441 6.72633 9.41085 6.7603 9.8C6.77255 10.3442 6.48118 10.0362 6.49781 9.7615C6.55916 9.41608 6.55441 9.06215 6.4838 8.7185C6.43568 8.575 6.37968 8.5435 6.26243 8.56975C6.16968 8.55925 5.93343 8.85062 5.86781 9.33362C5.83231 9.48982 5.80543 9.64785 5.78731 9.807C5.75318 10.0537 5.60793 10.2296 5.50643 9.7685C5.41893 9.4325 5.36293 8.60825 5.21506 8.80075Z" fill="white"/>
<path d="M6.81366 11.4389C6.29391 11.7303 5.79079 11.9946 5.27979 12.2693C5.36601 11.9941 5.52383 11.7467 5.73708 11.5525C5.95032 11.3584 6.21134 11.2243 6.49341 11.1642C6.80841 11.1756 6.72791 11.3016 6.81366 11.4389Z" fill="white"/>
<path d="M8.76752 7.80062C8.73401 7.80768 8.70143 7.81854 8.67039 7.833C8.59086 7.8604 8.52503 7.91753 8.4867 7.9924C8.44836 8.06727 8.4405 8.15408 8.46476 8.23462C8.61264 9.24612 8.70627 10.0152 8.85414 11.0215C8.88039 11.1422 8.78939 11.2962 8.67914 11.284C8.48489 11.1361 8.43677 10.8334 8.10689 10.8465C7.96704 10.874 7.83922 10.9444 7.74122 11.0479C7.64321 11.1514 7.57988 11.2829 7.56002 11.424C7.51531 11.6413 7.51531 11.8655 7.56002 12.0829C7.61886 12.1683 7.70576 12.2305 7.80564 12.2586C7.90552 12.2868 8.01209 12.2791 8.10689 12.2369C8.25127 12.1712 8.36939 12.0067 8.42364 12.0444C8.45514 12.1109 8.41839 12.6385 7.74026 13.0401C7.32114 13.2484 6.99039 13.3026 6.81014 12.9185C6.70164 12.677 6.81889 11.7644 6.54764 11.9735C5.74002 14.315 8.43676 14.6449 8.73514 12.0724C8.75526 12.0006 8.81564 11.9297 8.85764 11.9455C8.87864 11.9569 8.89177 11.984 8.89702 12.0391C8.83402 14.364 6.81189 14.518 6.46889 13.7891C6.38532 13.5351 6.34423 13.269 6.34727 13.0016C6.34683 12.907 6.31617 12.8151 6.25976 12.7391C6.17839 12.6735 6.06814 12.8546 6.04364 13.1679C6.0188 13.3537 6.0106 13.5414 6.01914 13.7287C6.12677 15.5759 8.73164 14.784 9.15776 13.2615C9.23984 12.7825 9.26189 12.2952 9.22339 11.8107H9.23214L9.23826 11.8055C9.50076 12.1187 9.86126 11.844 9.93826 11.739C9.94694 11.7235 9.95916 11.7102 9.97393 11.7003C9.98871 11.6904 10.0056 11.6841 10.0233 11.682C10.0409 11.6799 10.0588 11.6819 10.0755 11.688C10.0922 11.6941 10.1073 11.7041 10.1194 11.7171C10.1702 11.7578 10.2302 11.7854 10.2942 11.7974C10.3582 11.8094 10.4242 11.8055 10.4863 11.7859C10.5484 11.7664 10.6047 11.7318 10.6503 11.6853C10.6959 11.6388 10.7293 11.5818 10.7476 11.5194C10.7935 11.2296 10.8228 10.9375 10.8351 10.6444C10.7326 10.6671 10.6364 10.7122 10.5534 10.7765C10.5427 10.7889 10.5357 10.8041 10.5333 10.8202C10.5228 10.8972 10.5123 10.9856 10.5 11.0679C10.4984 11.0753 10.4963 11.0826 10.4939 11.0897C10.4881 11.0997 10.4792 11.1074 10.4685 11.1116C10.4559 11.1192 10.4416 11.1235 10.4269 11.1241C10.4122 11.1247 10.3976 11.1216 10.3845 11.115C10.3713 11.1085 10.36 11.0987 10.3516 11.0867C10.3432 11.0746 10.338 11.0606 10.3364 11.046C10.2751 10.7327 10.0188 10.6829 9.86214 11.1781C9.75451 11.277 9.56639 11.2927 9.54539 11.1554C9.57252 10.8202 9.45177 10.7765 9.21289 10.9305C9.13764 10.2707 9.05889 9.64425 8.98189 8.9845C9.08339 8.9845 9.17177 9.06675 9.26452 8.94075C9.18 8.54964 9.03693 8.17352 8.84014 7.82512C8.83419 7.81743 8.82776 7.81012 8.82089 7.80325C8.82089 7.80325 8.82089 7.80325 8.81389 7.79712H8.80689C8.80164 7.79187 8.79464 7.79187 8.79289 7.78662C8.79114 7.78137 8.77014 7.7805 8.75876 7.78662M8.03427 11.3977C8.06596 11.3949 8.09764 11.4032 8.12385 11.4213C8.15005 11.4394 8.16912 11.466 8.17776 11.4966C8.18714 11.526 8.18933 11.5573 8.18416 11.5877C8.17898 11.6182 8.16659 11.6469 8.14802 11.6716C8.12702 11.7101 8.06052 11.6935 8.00802 11.6935C7.98193 11.6961 7.95568 11.6906 7.93283 11.6778C7.90998 11.6649 7.89163 11.6454 7.88026 11.6217C7.86189 11.5614 7.91351 11.501 7.93801 11.452L7.94676 11.4354C7.97193 11.4149 8.00216 11.4016 8.03427 11.3969" fill="white"/>
<path d="M10.5876 7.74561C10.5237 7.75077 10.4616 7.76957 10.4056 7.80073C10.3395 7.86959 10.2978 7.95815 10.2867 8.05293C10.2756 8.14772 10.2959 8.24352 10.3443 8.32573C10.4467 8.37473 10.5491 8.49548 10.4799 8.55586C10.1912 8.90586 9.43606 9.4851 9.39844 9.59535V9.60061V9.60585H9.40456C9.59086 9.63828 9.7812 9.64006 9.96806 9.61111V9.60585C10.3075 9.28092 10.619 8.92792 10.8991 8.55061C10.8614 8.51211 10.8221 8.48498 10.7827 8.44648C10.7733 8.43948 10.7656 8.43037 10.7604 8.41989C10.7551 8.40941 10.7524 8.39784 10.7524 8.3861C10.7524 8.37437 10.7551 8.3628 10.7604 8.35232C10.7656 8.34184 10.7733 8.33273 10.7827 8.32573C10.8552 8.25956 10.8991 8.16777 10.9052 8.06979C10.9112 7.9718 10.8789 7.87531 10.8151 7.80073C10.7443 7.76259 10.6642 7.74559 10.5841 7.75173M10.5482 8.05361C10.5963 8.04836 10.6514 8.10348 10.6794 8.16911C10.7074 8.23473 10.6934 8.31261 10.6471 8.32923C10.6007 8.34586 10.5359 8.29073 10.5044 8.21898C10.4729 8.14723 10.4913 8.07023 10.5394 8.05973C10.5394 8.05973 10.5438 8.05361 10.5482 8.05361Z" fill="white"/>
<path d="M5.33755 13.0988C5.20841 13.3267 5.12776 13.5787 5.10066 13.8392C5.07356 14.0997 5.10058 14.363 5.18005 14.6126C5.21534 14.6639 5.26565 14.7031 5.32409 14.7247C5.38252 14.7463 5.44621 14.7493 5.50643 14.7333C5.6858 14.6458 5.76892 14.2337 5.72255 14.0849C5.66217 13.9747 5.61493 13.9581 5.55368 14.0517C5.42768 14.3378 5.3743 14.1392 5.36293 13.9747C5.34797 13.7033 5.3594 13.431 5.39705 13.1618C5.42943 12.9361 5.39705 13.0017 5.33405 13.0953" fill="white"/>
<path d="M17.6348 12.2745C17.3592 11.5982 16.9724 10.9332 16.8473 10.6803C16.7222 10.4274 15.7973 8.91629 15.6617 8.74041C15.3598 8.33879 16.1508 8.91104 15.5611 8.10866C15.3388 7.89429 15.3257 7.88291 15.1358 7.70704C15.0483 7.63004 14.8138 7.49791 14.7753 7.71841C14.7549 7.87765 14.7617 8.03921 14.7954 8.19616C14.8548 8.34235 14.9346 8.47935 15.0326 8.60304C16.0232 10.0758 16.8845 11.6315 17.6068 13.2528C17.7346 13.1872 17.7074 12.39 17.6313 12.2745" fill="white"/>
<path d="M16.415 14.525C16.359 14.5906 16.5489 14.8925 16.7965 14.8873C17.2086 14.8383 17.5726 14.574 17.9078 13.8871C18.0463 13.6515 18.1328 13.389 18.1615 13.1171C18.2037 11.814 18.1108 10.51 17.8841 9.22602C17.8698 9.13641 17.8731 9.04488 17.8938 8.95652C17.9209 8.91802 18.011 8.95652 18.0591 8.86902C18.1309 8.78152 17.8736 8.11565 17.7266 7.85752C17.6741 7.74202 17.6558 7.66502 17.5691 7.86802C17.4644 8.09904 17.4149 8.3513 17.4248 8.60477C17.6216 10.1334 17.6811 11.4791 17.8124 13.0078C17.8343 13.1646 17.8002 13.3242 17.7161 13.4584C17.3661 13.9053 16.9219 14.2695 16.415 14.525Z" fill="white"/>
<path d="M21.1419 16.7624C20.8435 16.9549 20.8435 17.1798 21.085 17.185C21.3313 17.1913 21.5751 17.1333 21.7922 17.0166C22.0093 16.9 22.1923 16.7289 22.3231 16.52C22.4416 16.2488 22.5092 15.9582 22.5226 15.6625C22.5786 14.2586 22.5036 12.8525 22.2986 11.4625C22.2725 11.3323 22.2587 11.1998 22.2575 11.067C22.2855 10.9953 22.4185 11.0775 22.464 10.99C22.5375 10.913 22.1192 10.3031 21.9705 10.0441C21.9197 9.92864 21.9022 9.85164 21.8147 10.0608C21.7163 10.2912 21.686 10.5451 21.7272 10.7923C21.948 12.3668 22.0862 13.9519 22.1411 15.5409C22.1308 15.6741 22.1029 15.8053 22.058 15.9311C21.9455 16.1244 21.8101 16.3033 21.6546 16.464C21.5181 16.5743 21.232 16.6845 21.1392 16.7668" fill="white"/>
<path d="M22.2085 13.0279C22.2032 12.6377 22.2181 12.3017 22.2032 12.0112C22.1883 11.7207 22.0728 10.6313 22.0361 10.4003C21.9993 10.1693 21.9538 9.81232 21.8978 9.53232C21.8649 9.36925 21.8476 9.20342 21.8462 9.03707C21.8681 8.96007 21.9635 9.04232 22.0063 8.94957C21.9571 8.52126 21.8248 8.10666 21.617 7.72894C21.5627 7.61344 21.4603 7.65194 21.3378 7.83919C21.2197 7.95994 21.2635 8.23469 21.3072 8.49894C21.6318 10.2183 21.7894 11.9651 21.778 13.7148C21.7605 13.8522 22.2155 13.2913 22.2085 13.0279Z" fill="white"/>
<path d="M20.0227 10.8728C19.8363 10.8675 19.4452 10.4659 19.3314 10.2297C19.2966 10.1141 19.3043 9.98995 19.3533 9.87966C19.4233 9.82979 19.5283 9.76941 19.6079 9.82979C19.6079 9.82979 19.6902 9.95666 19.6744 9.97241C19.7759 10.0275 19.8205 9.99429 19.831 9.94529C19.8372 9.86829 19.7995 9.81841 19.7995 9.73091C19.8424 9.48329 20.09 9.45091 20.1845 9.60404C20.2511 9.73726 20.2867 9.88384 20.2887 10.0328C20.2887 10.1045 20.1872 10.0223 20.1303 10.0389C20.0734 10.0555 20.0594 10.1264 20.055 10.1929C20.0428 10.374 20.0253 10.654 20.0227 10.8684" fill="white"/>
<path d="M16.5839 13.4619C16.6364 12.9281 16.5673 11.851 16.5621 11.5369C16.5446 10.801 16.4352 9.37737 16.3871 9.14025C16.3284 8.68962 16.5498 9.19012 16.5174 8.92675C16.4198 8.50484 16.232 8.10904 15.9671 7.7665C15.8839 7.63437 15.8874 7.60725 15.7562 7.79975C15.672 8.09519 15.6781 8.40904 15.7737 8.701C15.9524 9.56365 16.0694 10.438 16.1237 11.3172C16.1799 12.2434 16.1869 13.1719 16.1447 14.0989C16.2856 14.0989 16.5104 13.8364 16.5883 13.461" fill="white"/>
<path d="M22.8437 12.6097C22.5173 11.9884 22.0194 11.263 21.8882 11.0163C21.7569 10.7695 20.6343 8.92154 20.4934 8.75704C20.0831 8.27842 20.6816 8.68004 20.4164 8.30029C20.2734 8.10908 20.1109 7.93315 19.9317 7.77529C19.8363 7.70967 19.7759 7.57229 19.7444 7.79717C19.7276 7.99824 19.7227 8.20013 19.7296 8.40179C19.7514 8.53851 19.8077 8.66741 19.8932 8.77629C21.0027 10.2987 21.9876 11.9081 22.8384 13.5888C22.9636 13.5232 22.9207 12.726 22.8437 12.6158" fill="white"/>
<path d="M18.8668 18.4967C18.8091 18.5141 18.7573 18.5474 18.7176 18.5928C18.6778 18.6382 18.6516 18.6938 18.6419 18.7534C18.6323 18.813 18.6395 18.8741 18.6629 18.9297C18.6863 18.9853 18.7248 19.0333 18.7741 19.0681C15.7055 19.0681 10.9971 19.0138 9.99171 19.0138C9.42472 19.0138 7.63884 18.9368 7.60559 18.9368C7.78323 19.2075 8.03311 19.423 8.32694 19.5589C8.62077 19.6949 8.9468 19.7458 9.26809 19.706C10.6313 19.706 16.9436 19.6893 18.7373 19.6893C18.6922 19.8117 18.679 19.9435 18.6989 20.0724C18.7188 20.2013 18.7712 20.323 18.8511 20.4261L18.859 20.4313C18.8597 20.4334 18.8612 20.4351 18.8631 20.4363C18.865 20.4374 18.8673 20.4378 18.8695 20.4375H18.8747C18.9946 20.4698 19.0497 20.371 19.0882 20.3053C19.547 20.3314 20.0069 20.3296 20.4655 20.3001C20.5328 20.4095 20.6011 20.5145 20.728 20.4978C20.9511 20.4427 21.127 20.4156 21.1348 19.9037C21.1348 19.9037 21.1112 19.0357 20.6028 19.0908C20.4821 19.1075 20.1461 19.1451 20.1461 19.1451C19.755 19.0961 19.4662 19.0908 19.0278 19.0681C19.069 19.0138 19.139 18.7776 19.0523 18.6945C19.0378 18.6824 19.0211 18.6734 19.0031 18.6678C18.985 18.6623 18.9661 18.6603 18.9473 18.6621H18.9386C18.9386 18.6621 18.9307 18.656 18.929 18.6507V18.6455C18.9091 18.5971 18.8927 18.5474 18.88 18.4967H18.8703M19.0786 19.7392C19.524 19.7611 19.944 19.7445 20.3911 19.7663C20.4186 19.8034 20.4324 19.8488 20.4302 19.895C20.428 19.9411 20.4098 19.985 20.3788 20.0192C20.3788 20.0253 20.3788 20.0253 20.3727 20.0253H20.3613C20.2161 20.0192 20.133 20.0192 19.9877 20.014C19.9877 20.0026 19.9825 19.9973 19.9825 19.9868C19.9475 19.8713 19.699 19.8818 19.6395 19.9755V19.9807V19.9921V20.0026C19.6383 20.0081 19.6383 20.0137 19.6395 20.0192C19.4488 20.0316 19.2573 20.0242 19.0681 19.9973C19.013 19.9203 19.0191 19.7777 19.0865 19.7392" fill="white"/>
<path d="M11.1047 8.27322C10.8063 9.2296 11.2797 10.2857 11.6017 10.186C11.838 10.2901 11.9858 9.78522 12.083 9.23485C12.1503 9.08085 12.1993 9.05985 12.2335 9.14122C12.2238 9.87797 12.2798 10.0433 12.4478 10.263C12.4928 10.3114 12.5471 10.3502 12.6075 10.3771C12.6678 10.404 12.733 10.4183 12.7991 10.4193C12.8652 10.4203 12.9308 10.4079 12.9919 10.3828C13.0531 10.3577 13.1085 10.3206 13.1549 10.2735C13.1794 10.2516 13.4471 9.94972 13.4471 9.94972C13.4613 9.93144 13.4793 9.91645 13.4998 9.90579C13.5204 9.89513 13.543 9.88905 13.5661 9.88797C13.5892 9.88689 13.6123 9.89083 13.6338 9.89953C13.6552 9.90823 13.6745 9.92147 13.6903 9.93835C13.7778 10.0258 13.7656 10.186 13.9528 10.2883C14.0523 10.3274 14.1613 10.3351 14.2653 10.3106C14.3692 10.286 14.4632 10.2304 14.5347 10.151C14.6423 9.94797 14.666 9.87622 14.715 9.80097C14.7928 9.68547 14.9215 9.73535 14.9215 9.77385C14.9101 9.83947 14.834 9.89985 14.8847 10.0153C14.9775 10.0923 14.9976 10.0433 15.0527 10.0267C15.2426 9.92172 15.3852 9.4606 15.3852 9.4606C15.3913 9.2856 15.3073 9.30135 15.2487 9.33985C15.1901 9.37835 15.1726 9.40547 15.0991 9.45535C15.0116 9.46585 14.827 9.5376 14.7404 9.3836C14.6476 9.19635 14.6476 8.93297 14.5767 8.74572C14.5767 8.73522 14.4568 8.45435 14.5688 8.43247C14.624 8.44385 14.7439 8.48235 14.7649 8.36685C14.8244 8.2566 14.638 7.9381 14.5102 7.7841C14.487 7.75178 14.4566 7.72518 14.4216 7.70632C14.3865 7.68745 14.3476 7.67682 14.3078 7.67522C14.268 7.67361 14.2283 7.68109 14.1919 7.69707C14.1554 7.71306 14.123 7.73713 14.0972 7.76747C14.0237 7.86588 13.9849 7.9859 13.987 8.10872C13.9706 8.1883 13.9711 8.2704 13.9883 8.3498C14.0054 8.42919 14.039 8.50414 14.0867 8.56985C14.262 8.85039 14.3423 9.17987 14.316 9.5096C14.2861 9.56343 14.2421 9.60813 14.1888 9.63895C14.1355 9.66977 14.0748 9.68554 14.0132 9.6846C13.9345 9.66272 13.8032 9.62422 13.7332 9.05285C13.7499 8.6027 13.6989 8.15259 13.5819 7.7176C13.5215 7.5426 13.4803 7.3676 13.3351 7.67297C13.2712 7.76802 13.2301 7.8765 13.2149 7.99001C13.1998 8.10351 13.2109 8.21899 13.2476 8.32747C13.3594 8.6541 13.3912 9.00277 13.3404 9.34422C13.2904 9.44253 13.2318 9.53623 13.1653 9.62422C13.123 9.67925 13.0609 9.71572 12.9923 9.726C12.9236 9.73628 12.8536 9.71956 12.797 9.67935C12.7347 9.64321 12.6822 9.59246 12.6439 9.53148C12.6057 9.4705 12.5828 9.40113 12.5773 9.32935C12.6054 8.95539 12.5955 8.57954 12.5476 8.2076C12.4601 7.99847 12.3096 8.07547 12.2475 8.13585C11.9551 8.50313 11.765 8.9411 11.6962 9.40547C11.6087 9.71347 11.5212 9.6251 11.4565 9.4991C11.3025 9.33985 11.2911 8.0641 11.1065 8.2741" fill="white"/>
<path d="M12.1127 10.2576C12.1127 10.2629 12.1127 10.2629 12.1039 10.2629V10.2681C12.0847 10.2795 12.0593 10.318 12.0077 10.3618C11.9639 10.42 11.9327 10.4867 11.9162 10.5577C11.8996 10.6286 11.898 10.7023 11.9114 10.7739C11.9114 10.8019 12.075 11.2989 12.2133 11.6585C12.3291 12.045 12.3681 12.4505 12.3279 12.852C12.1058 13.3678 11.7331 13.8045 11.2587 14.105C11.1895 14.1402 11.1131 14.1585 11.0355 14.1585C10.958 14.1585 10.8815 14.1402 10.8124 14.105V14.0998C10.7695 14.0664 10.7358 14.0226 10.7147 13.9725C10.6935 13.9224 10.6856 13.8677 10.6917 13.8136C11.1698 13.5181 11.5453 13.0824 11.767 12.5659C11.8718 12.2761 11.882 11.9605 11.7959 11.6646C11.7688 11.5146 11.7061 11.3733 11.613 11.2525V11.2464C11.6734 11.214 11.8283 11.3453 11.8545 11.263C11.81 11.0272 11.7037 10.8074 11.5465 10.626C11.5259 10.5956 11.4987 10.5703 11.4669 10.5519C11.4352 10.5335 11.3996 10.5225 11.363 10.5199C11.3264 10.5172 11.2896 10.5228 11.2555 10.5363C11.2214 10.5499 11.1907 10.5709 11.1659 10.598C11.0382 10.6803 11.011 10.9716 11.0705 11.2306C11.1405 11.417 11.333 11.4503 11.4643 11.8353V11.8405C11.4897 11.9739 11.4819 12.1116 11.4415 12.2413C11.2125 12.5588 10.9414 12.8437 10.6357 13.0883L10.6304 13.0935V13.0988H10.6225V13.0935C10.6254 13.0516 10.6254 13.0095 10.6225 12.9675C10.6225 12.8573 10.6619 12.593 10.6593 12.544V12.5388C10.43 12.7085 10.3513 13.2256 10.3093 13.3796C9.72389 13.7436 9.17634 14.1651 8.67478 14.6379C8.4744 14.9879 10.052 14.231 10.234 14.1435C10.234 14.1435 10.234 14.1435 10.241 14.1488C10.2744 14.2623 10.3218 14.3714 10.3819 14.4734C10.4736 14.6074 10.6048 14.7096 10.7572 14.7657C10.9096 14.8219 11.0757 14.8292 11.2324 14.7866C11.7506 14.5358 12.1803 14.1333 12.4644 13.6325C12.5108 13.5555 12.586 13.4951 12.6534 13.5555C12.8167 13.8745 13.0674 14.1405 13.3762 14.3224C13.6849 14.5043 14.0391 14.5946 14.3973 14.5828C14.5942 14.3141 14.5014 14.1768 14.4209 14.1269C14.3947 14.105 13.9957 13.9291 13.9344 13.7533C13.8968 13.594 13.9895 13.4505 14.1812 13.3411C14.7285 13.2821 15.2679 13.1648 15.7903 12.9911C15.8087 12.7748 15.8681 12.564 15.9653 12.3699C15.9843 12.3261 16.0145 12.2881 16.0528 12.2596V12.2544V12.25V12.2386L15.9653 12.1783L14.2153 12.1678C14.1978 12.1606 14.1813 12.1511 14.1663 12.1398V12.1345V12.1293V12.1231V12.1179V12.1126V12.1074C14.1801 12.089 14.1994 12.0756 14.2214 12.0689C14.6423 12.0085 15.3825 11.8703 15.4298 11.0626C15.4426 10.9718 15.4367 10.8793 15.4124 10.7909C15.3882 10.7024 15.346 10.6199 15.2887 10.5483C15.2313 10.4767 15.1599 10.4177 15.0788 10.3748C14.9977 10.3318 14.9087 10.306 14.8173 10.2988C14.6421 10.3363 14.4883 10.4404 14.3882 10.5891C14.2882 10.7378 14.2497 10.9194 14.2809 11.0959C14.266 11.2 14.315 11.4144 14.217 11.4363C13.573 11.508 12.8713 11.9613 12.8459 12.2833H12.8372V12.2885H12.8284L12.8214 12.2833C12.788 12.2633 12.7616 12.2335 12.7459 12.1979C12.7303 12.1623 12.7261 12.1227 12.7339 12.0846C12.7042 11.4995 12.5535 10.9268 12.2912 10.4029C12.2037 10.2988 12.1617 10.2603 12.1345 10.255H12.124M14.6808 10.9751C14.7295 10.9699 14.7785 10.9836 14.8173 11.0136C14.8482 11.0291 14.8744 11.0524 14.8933 11.0813C14.9122 11.1102 14.9231 11.1436 14.9249 11.1781V11.1895V11.1948V11.2C14.9249 11.2 14.9188 11.2053 14.9144 11.2114C14.8803 11.2499 14.8059 11.2438 14.7307 11.1948C14.7015 11.1785 14.6766 11.1556 14.6579 11.1279C14.6392 11.1003 14.6273 11.0686 14.623 11.0355V11.0294C14.623 11.0189 14.6257 11.0136 14.6309 11.0136V11.0023C14.6309 10.997 14.6309 10.997 14.6397 10.9909C14.6453 10.9856 14.6518 10.9815 14.6591 10.9788C14.6663 10.9761 14.674 10.9748 14.6817 10.9751M13.055 12.6376H13.0752C13.3164 12.6883 13.5613 12.7193 13.8075 12.7304C14.0105 12.747 14.1103 12.9229 13.9213 12.9999C13.7323 13.0769 13.5538 13.1268 13.5538 13.4374C13.579 13.5231 13.579 13.6142 13.5538 13.6999C13.5537 13.7022 13.5529 13.7045 13.5515 13.7064C13.5501 13.7083 13.5481 13.7097 13.5459 13.7104V13.7165V13.7218H13.5415L13.5328 13.727C13.5322 13.7287 13.5312 13.7302 13.5298 13.7313C13.5284 13.7324 13.5267 13.733 13.5249 13.7331C13.4785 13.7384 13.4138 13.6833 13.3639 13.6614C13.2301 13.5692 13.1176 13.4494 13.034 13.3101C12.9504 13.1708 12.8976 13.0152 12.8792 12.8538C12.8768 12.8277 12.8796 12.8014 12.8875 12.7764C12.8954 12.7514 12.9082 12.7283 12.9251 12.7083C12.9421 12.6884 12.9628 12.672 12.9862 12.6602C13.0095 12.6483 13.035 12.6412 13.0612 12.6394" fill="white"/>
<path d="M7.42001 8.28458C7.62301 8.38871 8.00014 8.34496 7.98439 7.98183C7.98439 7.94858 7.97826 7.83921 7.97564 7.80683C7.93626 7.69746 7.82164 7.71933 7.80064 7.83483C7.79276 7.86721 7.81289 7.92846 7.78489 7.95033C7.75689 7.97221 7.70001 7.96258 7.70001 7.86108C7.69795 7.82924 7.68636 7.79876 7.66676 7.77358C7.66112 7.76759 7.65413 7.76303 7.64636 7.76029C7.6386 7.75755 7.6303 7.75671 7.62214 7.75783C7.59501 7.76308 7.59501 7.76833 7.58276 7.79546C7.57241 7.82347 7.56707 7.85309 7.56701 7.88296C7.56176 7.92146 7.54864 7.93196 7.52501 7.93808C7.50139 7.94421 7.50664 7.94333 7.48389 7.92671C7.46114 7.91008 7.45501 7.89958 7.45501 7.87508C7.4547 7.84567 7.45147 7.81636 7.44539 7.78758C7.4332 7.77097 7.41554 7.7592 7.39551 7.75433C7.28439 7.75433 7.27651 7.89783 7.28439 7.95208C7.27389 7.96346 7.27039 8.21458 7.42001 8.28808" fill="white"/>
<path d="M13.328 11.0985C13.5301 11.2027 14.0096 11.1423 13.8941 10.7905C13.8941 10.7573 13.8871 10.6479 13.8819 10.6155C13.8416 10.5062 13.7305 10.5333 13.7069 10.6435C13.7007 10.682 13.7226 10.7424 13.6937 10.7643C13.6649 10.7862 13.6115 10.7643 13.6132 10.6654C13.6112 10.6352 13.5995 10.6064 13.58 10.5832C13.5743 10.5769 13.5672 10.5722 13.5593 10.5693C13.5514 10.5664 13.5429 10.5655 13.5345 10.5665C13.5082 10.5718 13.5082 10.577 13.4925 10.605C13.484 10.6317 13.479 10.6593 13.4776 10.6873C13.4776 10.7258 13.4619 10.7372 13.4374 10.7424C13.4129 10.7477 13.4199 10.7477 13.3971 10.731C13.3744 10.7144 13.3674 10.7092 13.3674 10.682C13.3685 10.6523 13.3641 10.6226 13.3542 10.5945C13.3486 10.5862 13.3414 10.579 13.333 10.5734C13.3246 10.5679 13.3151 10.5641 13.3052 10.5622C13.1959 10.5622 13.1906 10.7048 13.1941 10.7599C13.188 10.7652 13.1827 11.018 13.3315 11.095" fill="white"/>
<path d="M16.7747 9.93307C16.9751 10.0372 17.354 9.98819 17.3382 9.62507C17.3382 9.59794 17.3321 9.48769 17.3295 9.45532C17.2866 9.35032 17.1728 9.37219 17.1545 9.48769C17.1448 9.52094 17.1658 9.58132 17.1361 9.59794C17.1221 9.61982 17.0556 9.60844 17.0582 9.50432C17.0543 9.47291 17.0429 9.4429 17.025 9.41682C17.0113 9.41064 16.9961 9.40852 16.9812 9.41069C16.9541 9.41069 16.9541 9.41682 16.9383 9.44394C16.9293 9.47229 16.924 9.50171 16.9226 9.53144C16.9226 9.56382 16.9077 9.57519 16.8823 9.58044C16.857 9.58569 16.8613 9.58569 16.843 9.56907C16.8343 9.56409 16.8271 9.55695 16.8221 9.54837C16.817 9.53978 16.8143 9.53003 16.8141 9.52007C16.8129 9.48844 16.8082 9.45704 16.8001 9.42644C16.7856 9.41557 16.7689 9.40809 16.7511 9.40457C16.6417 9.40457 16.633 9.54719 16.64 9.59707C16.633 9.60757 16.6277 9.85957 16.7782 9.93219" fill="white"/>
<path d="M18.558 12.852C18.4373 13.0516 18.364 13.2763 18.3437 13.5086C18.3234 13.741 18.3566 13.9749 18.4407 14.1925C18.5165 14.4235 18.6714 14.6203 18.8782 14.7481C18.9085 14.781 18.9461 14.8062 18.9881 14.8216C19.03 14.8371 19.075 14.8423 19.1194 14.8369C19.1638 14.8315 19.2062 14.8157 19.2432 14.7907C19.2803 14.7656 19.3108 14.7321 19.3323 14.693C19.538 14.4515 19.5423 13.8407 19.6377 13.72C19.7077 13.4951 19.8766 13.5327 19.9597 13.6325C20.0343 13.749 20.135 13.8467 20.2537 13.9177C20.2927 13.9642 20.3406 14.0024 20.3945 14.0301C20.4485 14.0578 20.5074 14.0744 20.5679 14.0791C20.6283 14.0837 20.6891 14.0762 20.7466 14.0571C20.8042 14.038 20.8573 14.0075 20.903 13.9676C21.0737 13.8594 21.1972 13.6906 21.2486 13.4951C21.3242 12.5697 21.3326 11.6401 21.274 10.7135C21.2643 10.6479 21.0753 9.56986 21.0753 9.55936C21.0753 9.54886 21.0482 9.00986 21.029 8.88299C21.0237 8.82786 21.0123 8.81211 21.0613 8.81736C21.113 8.87249 21.1182 8.87774 21.1488 8.88824C21.2005 8.89961 21.2468 8.80074 21.2162 8.70711C21.0578 8.37724 20.8951 8.04211 20.735 7.71836C20.6982 7.66849 20.6475 7.62474 20.5845 7.72361C20.5462 7.76279 20.5161 7.80919 20.496 7.86012C20.4758 7.91105 20.4661 7.96549 20.4672 8.02024C20.4821 8.25649 20.5188 8.49886 20.532 8.73511C20.5967 9.13586 20.6606 9.54274 20.7253 9.94961C20.7848 10.8124 20.8023 11.6042 20.8618 12.467C20.8522 12.8292 20.7533 13.3192 20.6545 13.363C20.6545 13.363 20.5136 13.4619 20.4156 13.3569C20.282 13.1938 20.1647 13.0179 20.0656 12.8319C19.9212 12.684 19.825 12.7225 19.7217 12.8319C19.4682 13.23 19.2662 13.6587 19.1206 14.1076C19.069 14.1951 18.9298 14.2721 18.7758 14.1024C18.5723 13.7202 18.4974 13.2827 18.5623 12.8546" fill="white"/>
<path d="M16.8649 7.81114C16.9628 7.89571 17.0381 8.00337 17.0839 8.12438C17.1298 8.24538 17.1447 8.37591 17.1274 8.50414C17.0915 8.75177 16.997 9.02914 16.9279 8.98802C16.8587 8.94689 16.9777 8.74039 16.9077 8.51464C16.8649 8.36677 16.6207 8.10252 16.6452 8.02027C16.6351 7.99043 16.6336 7.95831 16.641 7.92767C16.6484 7.89702 16.6643 7.86911 16.687 7.84719C16.7097 7.82527 16.7381 7.81024 16.7689 7.80386C16.7998 7.79748 16.8319 7.8 16.8614 7.81114" fill="white"/>
<path d="M19.1398 13.0988C19.1559 12.7358 19.1431 12.3721 19.1013 12.0112C19.0908 11.7251 18.8117 9.36695 18.7513 9.14733C18.6831 8.7352 19.0243 9.0922 18.9849 8.8507C18.8677 8.54795 18.5746 8.10258 18.4836 7.8392C18.4249 7.7237 18.4494 7.62483 18.3252 7.8112C18.2187 8.14461 18.1809 8.49615 18.2141 8.84458C18.563 10.4785 18.7483 12.1431 18.7671 13.8137C18.9071 13.8137 19.0681 13.4567 19.1381 13.0988" fill="white"/>
<path d="M21.3754 10.6392C21.5434 10.7381 21.6379 11.2517 21.6204 11.3978C21.5889 11.6673 21.5023 11.9587 21.4384 11.9228C21.3745 11.8869 21.4524 11.5212 21.4192 11.4118C21.3798 11.2517 21.1567 10.9603 21.1803 10.8728C21.1357 10.6908 21.2783 10.6147 21.3754 10.6418" fill="white"/>
<path d="M9.99083 12.1625C10.1466 12.229 10.2402 12.6079 10.2218 12.7181C10.1903 12.9159 10.1072 13.125 10.0468 13.1023C9.98646 13.0795 10.06 12.8056 10.0276 12.7234C10.0153 12.5204 9.79658 12.4154 9.80096 12.3279C9.75983 12.1686 9.88846 12.1406 9.98908 12.1625" fill="white"/>
<path d="M5.782 7.68521C6.01475 7.76221 6.02787 8.14721 6.013 8.26184C5.9815 8.46571 5.89837 8.68534 5.838 8.65821C5.77762 8.63109 5.838 8.35546 5.80475 8.26796C5.775 8.13759 5.57462 7.92671 5.6 7.86109C5.55537 7.72371 5.6875 7.65721 5.78462 7.68609" fill="white"/>
<path d="M10.3696 9.499C10.2787 9.57091 10.2155 9.67211 10.1907 9.78538C10.166 9.89865 10.1813 10.017 10.234 10.1203C10.2648 10.1659 10.3097 10.2003 10.3618 10.2182C10.4139 10.236 10.4704 10.2364 10.5228 10.2191C10.6978 10.2463 10.801 9.85075 10.801 9.85075C10.801 9.85075 10.8063 9.7405 10.6006 9.94963C10.5131 9.9715 10.5018 9.933 10.479 9.87788C10.4585 9.77479 10.4676 9.66801 10.5053 9.56988C10.5376 9.471 10.4703 9.42725 10.3696 9.499Z" fill="white"/>
<path d="M11.7058 7.53642C11.6278 7.59969 11.5636 7.67817 11.5169 7.76707C11.4703 7.85598 11.4422 7.95345 11.4345 8.05355C11.4266 8.1848 11.4048 8.1848 11.4835 8.27317C11.5421 8.3668 11.599 8.35542 11.7128 8.28455C11.7711 8.243 11.8107 8.18012 11.823 8.10955C11.851 7.95555 11.6804 8.18042 11.6568 8.0098C11.6331 7.83917 11.7285 7.79017 11.8318 7.63092C11.8318 7.5268 11.8318 7.45592 11.704 7.5373" fill="white"/>
<path d="M12.7846 7.75076C12.7415 7.94795 12.7155 8.14848 12.7068 8.35014C12.6744 8.49889 12.8468 8.56451 12.9229 8.37201C13.0009 8.16277 13.0423 7.94167 13.0454 7.71839C13.0104 7.49264 12.8704 7.50401 12.7829 7.75076" fill="white"/>
<path d="M19.5746 11.6376C19.5991 11.6157 20.531 10.8684 20.531 10.8684C20.6264 10.8299 20.6063 11.2534 20.5634 11.2473C20.2802 11.56 19.9459 11.8222 19.5746 12.0226C19.5291 12.0558 19.4828 11.7312 19.5746 11.6376Z" fill="white"/>
<path d="M20.426 11.6314C20.5923 11.725 20.657 12.2631 20.6386 12.4119C20.6448 12.698 20.4803 12.9281 20.4164 12.8958C20.3525 12.8634 20.4243 12.5388 20.3919 12.4233C20.3201 12.2482 20.2682 12.0656 20.237 11.879C20.1906 11.697 20.3245 11.5981 20.426 11.6314Z" fill="white"/>
<path d="M14.8751 13.9615C14.9512 13.8646 15.0394 13.7779 15.1376 13.7034C15.1678 13.6887 15.202 13.6845 15.2348 13.6915C15.2676 13.6985 15.2971 13.7162 15.3187 13.7419C15.3345 13.8408 15.261 13.9397 15.2846 14.077C15.303 14.1322 15.3187 14.1987 15.4088 14.1707C15.4681 14.1182 15.5375 14.0785 15.6128 14.054C15.6881 14.0294 15.7675 14.0206 15.8463 14.028C15.9627 14.028 15.9636 14.2477 15.8936 14.2477C15.6885 14.3056 15.4899 14.3848 15.3012 14.4839C15.288 14.4938 15.2729 14.5009 15.257 14.5048C15.241 14.5088 15.2243 14.5095 15.208 14.507C15.1918 14.5045 15.1761 14.4987 15.1621 14.4901C15.148 14.4815 15.1358 14.4702 15.1262 14.4568C15.1082 14.4284 15.0972 14.3961 15.0943 14.3626C15.0915 14.3291 15.0967 14.2954 15.1096 14.2643C15.1183 14.154 15.0781 14.0893 14.995 14.0998C14.932 14.1435 14.8786 14.1654 14.848 14.0884C14.8366 14.028 14.8322 13.9948 14.8725 13.9615" fill="white"/>
<path d="M21.4086 14.2529C21.4352 14.2802 21.4501 14.3168 21.4501 14.3548C21.4501 14.3929 21.4352 14.4295 21.4086 14.4568C21.3421 14.5285 21.2975 14.5609 21.2336 14.6318C21.2048 14.6921 21.1855 14.7796 21.2783 14.8068C21.4533 14.8619 21.8558 14.5705 21.8558 14.5591C21.8776 14.5396 21.8929 14.5139 21.8998 14.4855C21.9067 14.4571 21.9047 14.4272 21.8943 14.3999C21.8558 14.3509 21.7718 14.378 21.714 14.378C21.6851 14.378 21.5959 14.3561 21.6388 14.2739C21.6685 14.2231 21.6932 14.1695 21.7123 14.1138C21.7376 14.0429 21.7166 13.9991 21.6151 13.9598C21.5326 13.9462 21.4483 13.9462 21.3658 13.9598C21.3063 13.9764 21.2853 14.0096 21.2783 14.0866C21.2783 14.2074 21.3491 14.2021 21.4183 14.2511" fill="white"/>
</svg>
