<svg width="34" height="34" viewBox="0 0 34 34" fill="none" xmlns="http://www.w3.org/2000/svg">
<rect width="34" height="34" rx="10" fill="white" fill-opacity="0.3"/>
<path d="M14.25 14.0498C16.03 14.6998 17.97 14.6998 19.75 14.0498" stroke="white" stroke-width="1.5" stroke-linecap="round" stroke-linejoin="round"/>
<path d="M21.8198 7H12.1798C10.0498 7 8.31982 8.74 8.31982 10.86V24.95C8.31982 26.75 9.60982 27.51 11.1898 26.64L16.0698 23.93C16.5898 23.64 17.4298 23.64 17.9398 23.93L22.8198 26.64C24.3998 27.52 25.6898 26.76 25.6898 24.95V10.86C25.6798 8.74 23.9498 7 21.8198 7Z" stroke="white" stroke-width="1.5" stroke-linecap="round" stroke-linejoin="round"/>
<path d="M21.8198 7H12.1798C10.0498 7 8.31982 8.74 8.31982 10.86V24.95C8.31982 26.75 9.60982 27.51 11.1898 26.64L16.0698 23.93C16.5898 23.64 17.4298 23.64 17.9398 23.93L22.8198 26.64C24.3998 27.52 25.6898 26.76 25.6898 24.95V10.86C25.6798 8.74 23.9498 7 21.8198 7Z" stroke="white" stroke-width="1.5" stroke-linecap="round" stroke-linejoin="round"/>
</svg>
