<svg width="34" height="34" viewBox="0 0 34 34" fill="none" xmlns="http://www.w3.org/2000/svg">
<rect width="34" height="34" rx="10" fill="white" fill-opacity="0.3"/>
<g clip-path="url(#clip0_2113_18766)">
<path d="M22.85 19.033C22.3015 19.0322 21.7596 19.1516 21.2623 19.383C20.7651 19.6143 20.3246 19.952 19.972 20.372L14.816 17.872C14.9336 17.3326 14.9271 16.7735 14.797 16.237L20.024 13.572C20.6255 14.2599 21.458 14.7038 22.3644 14.8198C23.2708 14.9359 24.1882 14.7161 24.9437 14.202C25.6991 13.6879 26.2402 12.915 26.4647 12.0292C26.6893 11.1435 26.5818 10.2062 26.1626 9.39426C25.7434 8.58233 25.0414 7.95197 24.1892 7.62219C23.337 7.2924 22.3936 7.28601 21.537 7.60421C20.6804 7.92242 19.97 8.5432 19.5398 9.34937C19.1096 10.1555 18.9895 11.0913 19.202 11.98L13.975 14.645C13.4742 14.0706 12.8093 13.6635 12.07 13.4787C11.3307 13.2939 10.5525 13.3402 9.84033 13.6115C9.12817 13.8827 8.51629 14.3658 8.0872 14.9955C7.65811 15.6253 7.43245 16.3715 7.44065 17.1336C7.44884 17.8956 7.69049 18.6368 8.13302 19.2572C8.57555 19.8776 9.19768 20.3474 9.91551 20.6032C10.6333 20.8591 11.4124 20.8887 12.1475 20.688C12.8827 20.4873 13.5387 20.0661 14.027 19.481L19.183 21.981C19.0166 22.7396 19.0896 23.531 19.3921 24.2463C19.6945 24.9615 20.2114 25.5653 20.8716 25.9744C21.5317 26.3834 22.3024 26.5775 23.0775 26.53C23.8526 26.4824 24.5939 26.1956 25.1991 25.7089C25.8042 25.2223 26.2435 24.5598 26.4563 23.813C26.669 23.0661 26.6448 22.2717 26.387 21.5392C26.1291 20.8067 25.6503 20.1722 25.0166 19.7233C24.3829 19.2745 23.6266 19.0333 22.85 19.033ZM22.85 9.19002C23.233 9.1922 23.6068 9.30776 23.9242 9.52214C24.2416 9.73651 24.4885 10.0401 24.6335 10.3946C24.7786 10.7491 24.8154 11.1386 24.7394 11.514C24.6633 11.8894 24.4778 12.2339 24.2062 12.5039C23.9346 12.774 23.5891 12.9576 23.2132 13.0315C22.8374 13.1055 22.4481 13.0664 22.0944 12.9193C21.7408 12.7723 21.4386 12.5237 21.226 12.2051C21.0134 11.8865 20.9 11.5121 20.9 11.129C20.9032 10.6142 21.1101 10.1216 21.4755 9.75898C21.841 9.39635 22.3352 9.19322 22.85 9.19402V9.19002ZM11.15 19.033C10.767 19.0309 10.3932 18.9153 10.0758 18.7009C9.75834 18.4865 9.51153 18.1829 9.36645 17.8285C9.22138 17.474 9.18455 17.0844 9.2606 16.709C9.33666 16.3336 9.52219 15.9892 9.7938 15.7191C10.0654 15.449 10.4109 15.2654 10.7867 15.1915C11.1626 15.1176 11.5519 15.1566 11.9055 15.3037C12.2592 15.4508 12.5614 15.6993 12.774 16.0179C12.9865 16.3365 13.1 16.711 13.1 17.094C13.0979 17.6095 12.8914 18.1032 12.5258 18.4667C12.1603 18.8301 11.6655 19.0338 11.15 19.033ZM22.85 24.7C22.467 24.6979 22.0932 24.5823 21.7758 24.3679C21.4583 24.1535 21.2115 23.85 21.0665 23.4955C20.9214 23.141 20.8845 22.7514 20.9606 22.376C21.0367 22.0006 21.2222 21.6562 21.4938 21.3861C21.7654 21.116 22.1109 20.9324 22.4867 20.8585C22.8626 20.7846 23.2519 20.8236 23.6055 20.9707C23.9592 21.1178 24.2614 21.3663 24.474 21.6849C24.6865 22.0036 24.8 22.378 24.8 22.761C24.7979 23.2765 24.5914 23.7702 24.2258 24.1337C23.8603 24.4971 23.3655 24.7008 22.85 24.7Z" fill="white"/>
</g>
<defs>
<clipPath id="clip0_2113_18766">
<rect width="24" height="24" fill="white" transform="translate(5 5)"/>
</clipPath>
</defs>
</svg>
