<svg width="18" height="18" viewBox="0 0 18 18" fill="none" xmlns="http://www.w3.org/2000/svg">
<g clip-path="url(#clip0_2057_746)">
<path d="M13.3873 10.5248C12.9759 10.5241 12.5694 10.6137 12.1965 10.7872C11.8236 10.9608 11.4932 11.214 11.2288 11.529L7.36175 9.65402C7.44998 9.24947 7.44511 8.83016 7.3475 8.42777L11.2677 6.42902C11.7189 6.94492 12.3433 7.27782 13.023 7.36487C13.7028 7.45192 14.3909 7.28709 14.9575 6.9015C15.5241 6.51591 15.9299 5.93624 16.0983 5.27194C16.2667 4.60763 16.1861 3.90464 15.8717 3.2957C15.5573 2.68675 15.0308 2.21398 14.3917 1.96664C13.7525 1.7193 13.045 1.71451 12.4025 1.95316C11.7601 2.19181 11.2273 2.6574 10.9046 3.26203C10.582 3.86666 10.4918 4.56849 10.6512 5.23502L6.731 7.23377C6.35542 6.80295 5.85676 6.49765 5.30227 6.35905C4.74779 6.22044 4.16413 6.25519 3.63001 6.4586C3.09588 6.66202 2.63697 7.02432 2.31516 7.49666C1.99334 7.969 1.82409 8.52866 1.83024 9.10017C1.83639 9.67169 2.01763 10.2276 2.34952 10.6929C2.68142 11.1582 3.14801 11.5105 3.68639 11.7024C4.22477 11.8943 4.80903 11.9165 5.36041 11.766C5.91179 11.6155 6.40377 11.2996 6.77 10.8608L10.637 12.7358C10.5122 13.3047 10.567 13.8983 10.7938 14.4347C11.0206 14.9711 11.4083 15.424 11.9034 15.7308C12.3985 16.0375 12.9766 16.1831 13.5579 16.1475C14.1392 16.1118 14.6952 15.8967 15.1491 15.5317C15.6029 15.1667 15.9324 14.6699 16.092 14.1097C16.2515 13.5496 16.2334 12.9538 16.04 12.4044C15.8466 11.855 15.4875 11.3792 15.0122 11.0425C14.5369 10.7058 13.9697 10.5249 13.3873 10.5248ZM13.3873 3.14252C13.6745 3.14415 13.9549 3.23082 14.1929 3.3916C14.431 3.55239 14.6161 3.78007 14.7249 4.04594C14.8337 4.31181 14.8613 4.60395 14.8043 4.8855C14.7473 5.16705 14.6081 5.4254 14.4044 5.62796C14.2007 5.83051 13.9416 5.9682 13.6597 6.02365C13.3778 6.0791 13.0858 6.04982 12.8206 5.93951C12.5553 5.82921 12.3287 5.64281 12.1693 5.40384C12.0098 5.16487 11.9248 4.88404 11.9247 4.59677C11.9271 4.21066 12.0823 3.8412 12.3564 3.56923C12.6305 3.29726 13.0011 3.14491 13.3873 3.14552V3.14252ZM4.61225 10.5248C4.32498 10.5231 4.04464 10.4365 3.80657 10.2757C3.56851 10.1149 3.3834 9.88721 3.2746 9.62134C3.16579 9.35547 3.13817 9.06333 3.19521 8.78178C3.25225 8.50023 3.3914 8.24188 3.5951 8.03933C3.79881 7.83677 4.05794 7.69908 4.33981 7.64364C4.62168 7.58819 4.91366 7.61747 5.17891 7.72777C5.44416 7.83808 5.67079 8.02448 5.83023 8.26344C5.98966 8.50241 6.07475 8.78325 6.07475 9.07052C6.07316 9.45715 5.91831 9.82737 5.64414 10.1C5.36998 10.3726 4.99889 10.5254 4.61225 10.5248ZM13.3873 14.775C13.1 14.7734 12.8196 14.6867 12.5816 14.5259C12.3435 14.3651 12.1584 14.1375 12.0496 13.8716C11.9408 13.6057 11.9132 13.3136 11.9702 13.032C12.0272 12.7505 12.1664 12.4921 12.3701 12.2896C12.5738 12.087 12.8329 11.9493 13.1148 11.8939C13.3967 11.8384 13.6887 11.8677 13.9539 11.978C14.2192 12.0883 14.4458 12.2747 14.6052 12.5137C14.7647 12.7527 14.8497 13.0335 14.8497 13.3208C14.8482 13.7074 14.6933 14.0776 14.4191 14.3502C14.145 14.6229 13.7739 14.7756 13.3873 14.775Z" fill="black"/>
</g>
<defs>
<clipPath id="clip0_2057_746">
<rect width="18" height="18" fill="white"/>
</clipPath>
</defs>
</svg>
