<svg width="18" height="18" viewBox="0 0 18 18" fill="none" xmlns="http://www.w3.org/2000/svg">
<path d="M15 6.75V4.5C15 4.10218 14.842 3.72064 14.5607 3.43934C14.2794 3.15804 13.8978 3 13.5 3H4.5C4.10218 3 3.72064 3.15804 3.43934 3.43934C3.15804 3.72064 3 4.10218 3 4.5V6.75M15 6.75C15.3978 6.75 15.7794 6.90804 16.0607 7.18934C16.342 7.47064 16.5 7.85218 16.5 8.25V12C16.5 12.3978 16.342 12.7794 16.0607 13.0607C15.7794 13.342 15.3978 13.5 15 13.5M15 6.75C14.6022 6.75 14.2206 6.90804 13.9393 7.18934C13.658 7.47064 13.5 7.85218 13.5 8.25V9.75H4.5V8.25C4.5 7.85218 4.34196 7.47064 4.06066 7.18934C3.77936 6.90804 3.39782 6.75 3 6.75M3 6.75C2.60218 6.75 2.22064 6.90804 1.93934 7.18934C1.65804 7.47064 1.5 7.85218 1.5 8.25V12C1.5 12.3978 1.65804 12.7794 1.93934 13.0607C2.22064 13.342 2.60218 13.5 3 13.5M3 13.5H15M3 13.5V15M15 13.5V15M9 3V9.75" stroke="#D9DBE1" stroke-width="1.5" stroke-linecap="round" stroke-linejoin="round"/>
</svg>
