<svg width="45" height="45" viewBox="0 0 45 45" fill="none" xmlns="http://www.w3.org/2000/svg">
<rect width="45" height="45" rx="6" fill="#11D600" fill-opacity="0.1"/>
<path d="M12 32C13.25 31.013 14.27 30.025 15.9 29.8C17.3112 29.7997 18.6696 30.3359 19.7 31.3C20.2348 31.6746 20.8531 31.9126 21.501 31.9933C22.1489 32.0739 22.8067 31.9947 23.4169 31.7626C24.0272 31.5306 24.5713 31.1526 25.0019 30.6618C25.4325 30.171 25.7364 29.5823 25.887 28.947C26.5359 29.0627 27.2041 28.9928 27.815 28.7455C28.4259 28.4981 28.9545 28.0833 29.34 27.5488C29.7255 27.0143 29.9523 26.3818 29.9942 25.7241C30.0362 25.0664 29.8916 24.4102 29.577 23.831C30.1503 23.6458 30.6661 23.3158 31.0744 22.8729C31.4827 22.4299 31.7698 21.8891 31.9079 21.3027C32.046 20.7163 32.0303 20.1042 31.8625 19.5256C31.6947 18.947 31.3804 18.4216 30.95 18C31.2751 17.675 31.5329 17.2892 31.7088 16.8645C31.8847 16.4398 31.9752 15.9847 31.9752 15.525C31.9752 15.0654 31.8847 14.6102 31.7088 14.1856C31.5329 13.7609 31.2751 13.3751 30.95 13.05C30.625 12.725 30.2392 12.4672 29.8145 12.2913C29.3898 12.1154 28.9347 12.0249 28.475 12.0249C27.5467 12.0249 26.6565 12.3936 26 13.05C25.5785 12.6196 25.053 12.3053 24.4744 12.1375C23.8959 11.9697 23.2838 11.9541 22.6974 12.0922C22.111 12.2303 21.5701 12.5174 21.1272 12.9257C20.6843 13.334 20.3542 13.8498 20.169 14.423C19.5899 14.1085 18.9337 13.9639 18.276 14.0058C17.6183 14.0478 16.9858 14.2746 16.4513 14.6601C15.9168 15.0456 15.502 15.5742 15.2546 16.1851C15.0072 16.7959 14.9374 17.4642 15.053 18.113C14.4233 18.2664 13.8403 18.5705 13.3541 18.9991C12.8679 19.4278 12.4932 19.9682 12.2622 20.5738C12.0312 21.1793 11.9508 21.832 12.0279 22.4755C12.1051 23.1191 12.3375 23.7342 12.705 24.268C13.499 25.42 14.409 26.712 14.2 28.1C13.926 29.743 13.014 30.732 12 32ZM12 32L27 17" stroke="#11D600" stroke-width="2" stroke-linecap="round" stroke-linejoin="round"/>
</svg>
