<svg width="45" height="45" viewBox="0 0 45 45" fill="none" xmlns="http://www.w3.org/2000/svg">
<rect width="45" height="45" rx="6" fill="#EE2737" fill-opacity="0.1"/>
<path d="M18.3201 28C19.4412 27.3608 20.7095 27.0246 22.0001 27.0246C23.2906 27.0246 24.5589 27.3608 25.6801 28M16.21 24.54C17.9761 23.541 19.9708 23.0159 22 23.0159C24.0291 23.0159 26.0238 23.541 27.79 24.54M14.1001 21.0901C16.5047 19.7125 19.2275 18.9869 21.9988 18.9852C24.77 18.9834 27.4937 19.7055 29.9001 21.0801M12 17.6299C15.0456 15.89 18.4925 14.9749 22 14.9749C25.5075 14.9749 28.9544 15.89 32 17.6299" stroke="#EE2737" stroke-width="2" stroke-linecap="round" stroke-linejoin="round"/>
</svg>
