<svg width="45" height="45" viewBox="0 0 45 45" fill="none" xmlns="http://www.w3.org/2000/svg">
<rect width="45" height="45" rx="6" fill="#7327EE" fill-opacity="0.1"/>
<path d="M15 21.5H14.5V17H15H15.5V21.5H15ZM28.2782 27.79C28.4441 27.5637 28.6108 27.3673 28.75 27.2141C28.8892 27.3673 29.0559 27.5637 29.2218 27.79C29.6432 28.3646 30 29.0512 30 29.6818C30 30.428 29.4225 31 28.75 31C28.0775 31 27.5 30.428 27.5 29.6818C27.5 29.0512 27.8568 28.3646 28.2782 27.79ZM31 23H31.5V25H25.5V23H26H26.5V22.5V22C26.5 21.1715 25.8285 20.5 25 20.5V16.5H26C28.4853 16.5 30.5 18.5147 30.5 21V22.5V23H31ZM20.5 16.5H23V22H17.5V16.5H19.5H20H20.5Z" fill="#7327EE" stroke="#7327EE"/>
</svg>
