<svg width="18" height="18" viewBox="0 0 18 18" fill="none" xmlns="http://www.w3.org/2000/svg">
<path d="M8.99962 2.08398C5.17323 2.08398 2.05518 5.20204 2.05518 9.02843C2.05518 12.8548 5.17323 15.9729 8.99962 15.9729C12.826 15.9729 15.9441 12.8548 15.9441 9.02843C15.9441 5.20204 12.826 2.08398 8.99962 2.08398ZM12.3191 7.43121L8.38156 11.3687C8.28434 11.4659 8.1524 11.5215 8.01351 11.5215C7.87462 11.5215 7.74268 11.4659 7.64545 11.3687L5.68018 9.40343C5.47879 9.20204 5.47879 8.86871 5.68018 8.66732C5.88156 8.46593 6.2149 8.46593 6.41629 8.66732L8.01351 10.2645L11.583 6.6951C11.7843 6.49371 12.1177 6.49371 12.3191 6.6951C12.5205 6.89648 12.5205 7.22287 12.3191 7.43121Z" fill="#3498F5"/>
</svg>
