<svg width="28" height="28" viewBox="0 0 28 28" fill="none" xmlns="http://www.w3.org/2000/svg">
<g clip-path="url(#clip0_0_452)">
<path d="M28 4.66663H0V23.3335H28V4.66663Z" fill="#F0F0F0"/>
<path d="M15.75 4.6665H12.25V12.2498H0V15.7498H12.25V23.3331H15.75V15.7498H28V12.2498H15.75V4.6665Z" fill="#D80027"/>
<path d="M21.5352 17.2461L28 20.8377V17.2461H21.5352Z" fill="#0052B4"/>
<path d="M17.0435 17.2461L28 23.333V21.6118L20.1418 17.2461H17.0435Z" fill="#0052B4"/>
<path d="M25.0815 23.3331L17.0435 18.8671V23.3331H25.0815Z" fill="#0052B4"/>
<path d="M17.0435 17.2461L28 23.333V21.6118L20.1418 17.2461H17.0435Z" fill="#F0F0F0"/>
<path d="M17.0435 17.2461L28 23.333V21.6118L20.1418 17.2461H17.0435Z" fill="#D80027"/>
<path d="M4.94052 17.246L0 19.9907V17.246H4.94052Z" fill="#0052B4"/>
<path d="M10.9565 18.02V23.333H1.39404L10.9565 18.02Z" fill="#0052B4"/>
<path d="M7.85821 17.2461L0 21.6118V23.333L10.9565 17.2461H7.85821Z" fill="#D80027"/>
<path d="M6.46488 10.7534L0 7.16174V10.7534H6.46488Z" fill="#0052B4"/>
<path d="M10.9565 10.7534L0 4.6665V6.38774L7.85821 10.7534H10.9565Z" fill="#0052B4"/>
<path d="M2.91846 4.6665L10.9565 9.1325V4.6665H2.91846Z" fill="#0052B4"/>
<path d="M10.9565 10.7534L0 4.6665V6.38774L7.85821 10.7534H10.9565Z" fill="#F0F0F0"/>
<path d="M10.9565 10.7534L0 4.6665V6.38774L7.85821 10.7534H10.9565Z" fill="#D80027"/>
<path d="M23.0594 10.7536L28 8.00879V10.7536H23.0594Z" fill="#0052B4"/>
<path d="M17.0435 9.97945V4.6665H26.6059L17.0435 9.97945Z" fill="#0052B4"/>
<path d="M20.1418 10.7534L28 6.38774V4.6665L17.0435 10.7534H20.1418Z" fill="#D80027"/>
</g>
<defs>
<clipPath id="clip0_0_452">
<rect width="28" height="28" fill="white"/>
</clipPath>
</defs>
</svg>
