<svg width="85" height="70" viewBox="0 0 85 70" fill="none" xmlns="http://www.w3.org/2000/svg">
<rect width="27.7253" height="24.1617" transform="matrix(0.97455 -0.224172 0.224159 0.974553 29.9578 17.1377)" fill="#F1F3F9" stroke="#D6DCE8" stroke-width="1.05161" stroke-miterlimit="10"/>
<rect width="22.1802" height="2.37656" transform="matrix(0.97455 -0.224172 0.224159 0.974553 33.1885 18.8315)" fill="#D6DCE8"/>
<path d="M28.5525 14.2299C27.9792 12.8959 28.5958 11.3497 29.9298 10.7763L50.5713 1.90452C51.9053 1.33118 53.4514 1.9478 54.0247 3.28179L55.3326 6.325L29.8603 17.2731L28.5525 14.2299Z" fill="white" stroke="#D6DCE8" stroke-width="1.05161" stroke-miterlimit="10"/>
<path d="M29.7538 10.8532L29.3366 11.0325C28.6155 11.3425 28.1727 12.0297 28.1397 12.7645L32.5227 16.13L35.1534 14.9994L29.7538 10.8532Z" fill="#D6DCE8"/>
<path d="M40.2016 12.8296L37.5709 13.9603L32.1712 9.8142L34.802 8.68351L40.2016 12.8296Z" fill="#D6DCE8"/>
<path d="M45.2498 10.6599L42.6191 11.7906L37.2195 7.64446L39.8502 6.51377L45.2498 10.6599Z" fill="#D6DCE8"/>
<path d="M50.298 8.49015L47.6673 9.62084L42.2677 5.47472L44.8984 4.34403L50.298 8.49015Z" fill="#D6DCE8"/>
<path d="M55.327 6.30572L55.3354 6.32509L52.7155 7.45112L47.3158 3.305L49.9466 2.17431L55.327 6.30572Z" fill="#D6DCE8"/>
<path d="M66.779 64.6073L42.2809 51.1198L58.8736 20.9796C59.4137 19.9984 60.6445 19.6327 61.6301 20.1753L79.2449 29.8732L81.5308 37.8109L66.779 64.6073Z" fill="#F1F3F9" stroke="#D6DCE8" stroke-width="1.05161" stroke-miterlimit="10"/>
<path d="M53.0255 50.39L49.3198 48.3498C49.1815 48.2737 49.2074 47.9648 49.3713 47.6672C49.5351 47.3696 49.7822 47.1825 49.9205 47.2586L53.6262 49.2988C53.7645 49.3749 53.7386 49.6838 53.5747 49.9814C53.3836 50.3286 53.1638 50.4661 53.0255 50.39Z" fill="#D5DDEA"/>
<path d="M70.168 32.6663L60.942 27.5869C60.7275 27.4688 60.6822 27.1157 60.8439 26.822C61.0057 26.5282 61.3282 26.3776 61.5428 26.4957L70.7688 31.5751C70.9833 31.6933 71.0286 32.0463 70.8669 32.3401C70.7051 32.6339 70.3826 32.7845 70.168 32.6663Z" fill="#D6DCE8"/>
<path d="M62.6522 31.8475L59.4933 30.1084C59.3027 30.0034 59.2779 29.6616 59.4396 29.3679C59.6014 29.0741 59.9034 28.9122 60.094 29.0172L63.2257 30.7413C63.4164 30.8463 63.4411 31.1881 63.2794 31.4818C63.1177 31.7756 62.8156 31.9375 62.6522 31.8475Z" fill="#D6DCE8"/>
<path d="M68.7332 50.9827L57.6733 44.8937L56.4544 44.2226L52.7678 42.193C52.6191 42.1111 52.3453 42.2566 52.1701 42.5749C52.0199 42.8477 51.9887 43.186 52.167 43.2842L55.8537 45.3138L57.0726 45.9849L68.1324 52.0739C68.2811 52.1558 68.5549 52.0103 68.7301 51.692C68.8756 51.3574 68.8818 51.0646 68.7332 50.9827Z" fill="#D6DCE8"/>
<path d="M70.3342 48.0723L66.224 45.8094L64.8241 45.0387L54.3699 39.2831C54.2209 39.2011 53.9469 39.3465 53.7717 39.6647C53.6215 39.9375 53.5904 40.2759 53.7691 40.3743L64.2234 46.1299L65.6232 46.9006L69.7335 49.1635C69.8824 49.2455 70.1565 49.1001 70.3317 48.7819C70.4771 48.4472 70.4831 48.1543 70.3342 48.0723Z" fill="#D6DCE8"/>
<path d="M71.7635 45.5413L70.6954 44.9532L69.6272 44.3651L55.7711 36.7366C55.6227 36.6549 55.3492 36.8006 55.174 37.1188C55.0238 37.3916 54.9923 37.7298 55.1704 37.8278L69.0265 45.4563L70.2133 46.1097L71.1331 46.6161C71.2815 46.6978 71.555 46.5521 71.7302 46.2339C71.91 45.9774 71.9119 45.6229 71.7635 45.5413Z" fill="#D6DCE8"/>
<path d="M73.3418 42.6183L69.9004 40.7236L69.0474 40.254L57.3701 33.825C57.223 33.7441 56.9508 33.8904 56.7756 34.2087C56.6254 34.4815 56.5929 34.8191 56.7693 34.9162L68.4466 41.3452L69.2996 41.8148L72.7117 43.6933C72.9176 43.8066 73.1604 43.6441 73.3356 43.3258C73.4857 43.053 73.5183 42.7154 73.3418 42.6183Z" fill="#D6DCE8"/>
<path d="M79.1245 30.0869L77.8242 32.4488C76.9839 33.9752 77.5401 35.8938 79.0664 36.7341L81.4104 38.0246" fill="#F1F3F9"/>
<path d="M79.1245 30.0869L77.8242 32.4488C76.9839 33.9752 77.5401 35.8938 79.0664 36.7341L81.4104 38.0246" stroke="#D6DCE8" stroke-width="1.05161" stroke-miterlimit="10"/>
<path d="M39.5495 53.6923L13.334 63.4292L1.35559 31.1758C0.965652 30.1258 1.49285 28.955 2.5475 28.5633L21.3972 21.5622L28.9 25.0171L39.5495 53.6923Z" fill="#F1F3F9" stroke="#D6DCE8" stroke-width="1.05161" stroke-miterlimit="10"/>
<path d="M21.4761 21.791L22.4148 24.3186C23.0214 25.9519 24.8372 26.7842 26.4706 26.1776L28.9789 25.2459" fill="#F1F3F9"/>
<path d="M21.4761 21.791L22.4148 24.3186C23.0214 25.9519 24.8372 26.7842 26.4706 26.1776L28.9789 25.2459" stroke="#D6DCE8" stroke-width="1.05161" stroke-miterlimit="10"/>
<path d="M29.8497 42.9036L24.0965 39.8317C23.0066 39.2497 21.6505 39.766 21.1905 40.9381L19.162 46.1065L18.0553 45.5198C16.9588 44.9386 15.5984 45.4662 15.1473 46.6477L14.2808 48.9173C13.6321 50.6166 15.2513 52.2769 16.9285 51.6322L24.2654 48.812L29.5916 46.7406C31.2658 46.0895 31.4235 43.7439 29.8497 42.9036Z" fill="#D6DCE8"/>
<path d="M14.8693 42.0591C16.2248 41.3459 16.788 39.779 16.1493 38.4979C15.5106 37.2168 13.9437 36.7706 12.5882 37.4838C11.2328 38.197 10.6696 39.7639 11.3083 41.045C11.947 42.3261 13.5138 42.7723 14.8693 42.0591Z" fill="#D6DCE8"/>
<path d="M60.4208 64.2937C60.4208 66.6168 58.5375 68.5001 56.2144 68.5001H32.9535C30.6304 68.5001 28.7471 66.6168 28.7471 64.2937V29.5313C28.7471 28.2627 29.7685 27.2275 31.0427 27.2275H53.8171L60.4208 33.8546V64.2937Z" fill="white" stroke="#D6DCE8" stroke-width="1.05161" stroke-miterlimit="10"/>
<path d="M53.8218 27.5039V30.9761C53.8218 32.7185 55.2342 34.1309 56.9766 34.1309H60.4255" fill="#F1F3F9"/>
<path d="M53.8218 27.5039V30.9761C53.8218 32.7185 55.2342 34.1309 56.9766 34.1309H60.4255" stroke="#D6DCE8" stroke-width="1.05161" stroke-miterlimit="10"/>
<path d="M40.1885 40.2752C41.5267 39.4054 43.0655 38.937 44.8051 38.937C49.4218 38.937 53.1686 42.684 53.1686 47.3009C53.1686 51.9178 49.4218 55.6648 44.8051 55.6648C40.1885 55.6648 36.4417 51.9178 36.4417 47.3009C36.4417 44.3568 37.9136 41.8142 40.1885 40.2752Z" fill="#D6DCE8" stroke="#AAB2C5" stroke-width="1.05161" stroke-miterlimit="10"/>
<path d="M46.12 46.7923L46.378 47.0451C46.9213 47.5775 47.7227 47.5775 48.2659 47.0451C48.5252 46.791 48.6778 46.4604 48.6778 46.1052C48.6778 45.75 48.5252 45.4194 48.2659 45.1653L45.759 42.7084C45.558 42.5115 45.2828 42.4643 45.1457 42.4464C44.9843 42.4253 44.8202 42.4253 44.7222 42.4254C44.7192 42.4254 44.7163 42.4254 44.7134 42.4254C44.4087 42.4254 44.0603 42.523 43.8033 42.7748L41.2964 45.2317C41.0381 45.4848 40.9354 45.8318 40.9354 46.1384C40.9354 46.445 41.0381 46.792 41.2964 47.0451C41.8396 47.5775 42.6411 47.5775 43.1843 47.0451L43.4423 46.7923V50.8528C43.4423 51.6456 44.1233 52.1754 44.7812 52.1754C45.564 52.1754 46.12 51.5231 46.12 50.8528V46.7923Z" fill="white" stroke="#AAB2C5" stroke-width="1.05161"/>
</svg>
