<svg width="46" height="45" viewBox="0 0 46 45" fill="none" xmlns="http://www.w3.org/2000/svg">
<rect x="0.333496" width="45" height="45" rx="22.5" fill="#EE2737" fill-opacity="0.1"/>
<path d="M19.1136 27.25C20.0946 26.6907 21.2043 26.3966 22.3336 26.3966C23.4628 26.3966 24.5726 26.6907 25.5536 27.25M17.2672 24.2225C18.8126 23.3484 20.5579 22.8889 22.3335 22.8889C24.109 22.8889 25.8543 23.3484 27.3997 24.2225M15.4211 21.2038C17.5251 19.9984 19.9075 19.3635 22.3324 19.362C24.7573 19.3605 27.1405 19.9924 29.2461 21.1951M13.5835 18.1761C16.2484 16.6538 19.2644 15.853 22.3335 15.853C25.4026 15.853 28.4186 16.6538 31.0835 18.1761" stroke="#EE2737" stroke-width="1.75" stroke-linecap="round" stroke-linejoin="round"/>
</svg>
